<?xml version="1.0" standalone="no"?>
<!DOCTYPE svg PUBLIC "-//W3C//DTD SVG 20010904//EN"
 "http://www.w3.org/TR/2001/REC-SVG-20010904/DTD/svg10.dtd">
<svg version="1.0" xmlns="http://www.w3.org/2000/svg"
 width="1000.000000pt" height="1000.000000pt" viewBox="0 0 1000.000000 1000.000000"
 preserveAspectRatio="xMidYMid meet">
<metadata>
Created by potrace 1.14, written by Peter Selinger 2001-2017
</metadata>
<g transform="translate(0.000000,1000.000000) scale(0.100000,-0.100000)"
fill="#000000" stroke="none">
<path d="M4289 9975 c-3 -2 -35 -5 -72 -7 -37 -1 -67 -5 -67 -9 0 -4 -9 -5
-20 -2 -15 4 -20 0 -20 -14 0 -11 -8 -31 -19 -44 -20 -27 -17 -49 7 -49 34 0
-54 -43 -103 -50 -43 -6 -36 -8 47 -9 118 -1 139 -20 54 -48 -41 -13 -43 -29
-4 -42 26 -9 30 -14 18 -21 -8 -5 -18 -6 -22 -4 -5 3 -11 -2 -14 -11 -5 -12
-9 -13 -20 -4 -11 9 -14 6 -15 -17 l0 -29 -12 25 c-11 23 -12 21 -15 -30 -2
-38 -6 -50 -12 -40 -8 12 -10 12 -10 -3 0 -10 -3 -16 -7 -14 -5 3 -17 1 -28
-4 -13 -5 2 -8 46 -8 36 -1 73 -7 82 -13 14 -11 9 -13 -37 -16 -30 -1 -69 -9
-88 -17 l-33 -15 55 5 c30 3 71 1 90 -4 l35 -8 -30 -12 c-16 -6 -36 -14 -42
-16 -17 -6 -17 -52 -1 -61 8 -5 -4 -12 -32 -19 -41 -10 -45 -14 -48 -43 l-3
-32 80 0 c89 0 104 -12 37 -29 -24 -6 -47 -18 -50 -27 -4 -9 -9 -74 -11 -143
-3 -69 -8 -144 -12 -166 -4 -22 -6 -44 -5 -48 2 -5 -2 -24 -7 -43 -9 -33 -9
-34 19 -34 16 0 31 -4 35 -10 6 -10 -27 -34 -62 -45 -18 -5 -23 -2 -23 13 0
11 -7 22 -15 26 -14 5 -19 -4 -16 -31 1 -6 -3 -14 -9 -18 -5 -3 -10 -22 -10
-41 l0 -34 -264 0 c-317 0 -296 10 -296 -137 l0 -92 -107 -3 c-61 -2 -108 -7
-110 -13 -2 -6 37 -59 87 -119 49 -59 90 -112 90 -118 0 -5 -41 -57 -90 -115
-50 -59 -89 -111 -87 -117 3 -8 113 -12 340 -14 l337 -2 0 85 0 85 35 0 c34 0
35 -1 35 -41 0 -60 -47 -335 -69 -406 -44 -136 -147 -303 -274 -441 -72 -78
-188 -257 -203 -312 -7 -25 -24 -76 -38 -114 -15 -38 -24 -71 -22 -74 12 -12
44 13 64 50 27 53 104 108 161 115 38 5 41 4 41 -17 0 -13 -12 -48 -27 -79
l-28 -56 -2 -285 c-2 -294 -2 -308 -21 -350 -6 -14 -18 -63 -27 -109 -9 -47
-28 -112 -41 -144 -14 -33 -23 -61 -21 -63 10 -11 61 119 74 190 23 125 25
131 52 131 32 0 37 -20 12 -42 -12 -9 -21 -29 -21 -43 -1 -14 -9 -60 -19 -102
-18 -75 -20 -116 -6 -137 3 -6 3 -11 -2 -11 -4 0 -6 -32 -5 -71 3 -59 6 -68
18 -58 11 9 14 7 12 -14 -2 -17 -7 -23 -16 -19 -12 4 -12 1 -3 -16 6 -11 7
-23 3 -26 -10 -6 -10 -231 0 -241 4 -4 4 -13 1 -21 -3 -8 -2 -21 1 -29 14 -36
98 44 110 105 1 3 11 26 24 51 20 41 25 45 51 41 l29 -4 -21 -51 c-12 -29 -44
-75 -72 -104 -40 -41 -59 -53 -93 -59 -48 -7 -57 -33 -19 -53 l22 -11 -24 6
c-23 6 -24 4 -17 -27 4 -19 8 -64 8 -101 1 -55 4 -68 17 -69 14 0 14 -1 1 -7
-8 -4 -16 -15 -16 -25 -2 -21 5 -16 82 54 l51 47 -31 5 c-17 3 -37 0 -45 -7
-10 -8 -9 -2 3 22 22 42 38 48 88 33 35 -11 41 -10 54 6 7 10 13 13 14 6 0
-15 -109 -123 -124 -123 -6 0 -2 -7 9 -16 21 -16 81 -14 78 3 -1 5 5 10 13 10
18 0 18 -11 -1 -27 -8 -7 -12 -17 -8 -24 3 -6 3 -8 -2 -4 -4 4 -17 1 -29 -7
-27 -20 -61 -19 -92 1 -22 15 -24 15 -18 1 3 -10 -2 -21 -14 -28 -20 -12 -20
-13 3 -31 13 -10 33 -18 44 -18 12 0 21 -6 21 -14 0 -17 22 -23 140 -33 l95
-8 -115 -5 -115 -5 -3 -57 -3 -58 -44 0 c-25 0 -45 -3 -46 -7 0 -5 -2 -18 -5
-31 -2 -13 3 -36 11 -52 14 -27 14 -33 -4 -67 -10 -21 -18 -49 -17 -63 1 -25
1 -25 114 -28 l112 -3 0 41 c0 52 22 63 56 26 14 -14 29 -26 34 -26 10 0 11 3
14 33 1 9 83 11 386 9 l385 -3 50 -35 c28 -18 78 -59 113 -89 35 -30 67 -55
72 -55 14 0 -10 51 -40 85 -36 41 -60 81 -53 89 21 21 103 -10 88 -33 -4 -7 3
-11 17 -11 36 0 68 -11 62 -21 -3 -5 -20 -7 -37 -4 -26 4 -28 3 -14 -5 9 -6
17 -20 17 -30 0 -10 5 -22 10 -25 6 -4 8 -21 4 -40 -6 -32 -4 -35 31 -49 42
-18 75 -21 75 -7 0 5 -8 12 -17 16 -14 5 -10 9 19 19 44 16 74 42 55 49 -6 2
-21 0 -32 -6 -18 -9 -19 -9 -6 6 11 15 11 17 -1 17 -8 0 -15 6 -15 14 0 38
103 -30 108 -71 1 -7 2 -18 3 -25 0 -6 7 -13 14 -16 9 -3 12 11 11 56 -2 71 3
82 42 82 31 0 36 11 19 54 -6 17 -6 27 2 32 7 5 5 11 -7 20 -17 12 -17 14 -1
20 16 6 34 3 70 -11 16 -7 17 -5 8 12 -10 18 -9 20 13 15 14 -2 22 -8 20 -12
-3 -5 -1 -11 5 -15 6 -3 13 1 16 9 3 9 9 14 13 12 4 -3 12 13 18 35 9 33 8 37
-3 28 -10 -8 -14 -8 -14 -1 0 16 21 25 32 14 7 -7 6 -16 -1 -29 -7 -13 -7 -23
0 -30 15 -15 10 -2500 -5 -2520 -5 -7 -230 -33 -366 -44 -288 -22 -1392 -9
-1482 17 -13 4 -15 0 -11 -18 4 -13 11 -26 17 -30 6 -4 -14 -5 -44 -3 -30 2
-47 2 -37 -1 26 -8 21 -24 -9 -24 -31 0 -87 -57 -78 -80 4 -8 6 -22 6 -30 -1
-8 6 -57 15 -108 14 -74 20 -91 32 -88 145 43 277 47 414 12 183 -47 318 -137
387 -260 31 -55 33 -56 51 -40 11 9 19 13 19 7 0 -10 -32 -43 -42 -43 -2 0
-13 18 -24 40 -10 22 -24 40 -29 40 -6 0 -16 13 -23 29 -7 17 -32 48 -55 71
-49 50 -152 106 -163 88 -4 -6 -3 -8 4 -4 6 3 13 2 16 -3 8 -13 -11 -8 -67 18
-26 12 -52 19 -59 15 -6 -4 -8 -3 -4 4 4 6 -1 11 -11 11 -29 -1 -82 9 -98 18
-14 8 -152 0 -220 -12 -16 -3 -43 -8 -60 -11 -33 -5 -232 -101 -253 -121 -12
-11 -12 -16 -1 -31 7 -9 1 -6 -14 8 -15 13 -38 25 -50 25 -12 1 -51 18 -87 37
-79 44 -159 75 -222 83 -55 8 -111 -2 -101 -18 4 -6 0 -8 -10 -4 -11 4 -20 -1
-27 -12 -8 -16 -5 -20 15 -25 14 -4 25 -13 25 -20 0 -33 30 -46 100 -45 60 1
73 -2 112 -29 55 -38 85 -76 133 -172 45 -89 67 -149 59 -161 -3 -5 -32 24
-64 64 -106 132 -197 191 -337 219 -43 9 -58 8 -87 -6 -19 -9 -72 -23 -118
-32 -164 -30 -212 -45 -243 -73 -16 -15 -47 -36 -68 -47 -38 -19 -108 -94 -88
-94 6 0 4 -15 -6 -38 -23 -55 -11 -206 26 -314 35 -104 48 -130 127 -249 65
-97 91 -119 143 -119 16 0 34 -7 42 -16 12 -15 20 -15 84 2 16 4 17 3 5 -5
-21 -15 -6 -24 53 -33 29 -4 86 -12 126 -18 41 -6 80 -15 85 -19 10 -8 80 -20
153 -26 17 -2 36 -5 40 -8 5 -3 38 -11 73 -16 77 -13 84 -9 171 76 l66 65 54
-17 c77 -23 214 -30 306 -16 206 33 360 108 484 238 53 54 108 133 94 133 -3
0 -1 9 5 20 21 39 29 181 12 203 -5 7 -14 27 -21 46 -18 54 -69 130 -138 203
-34 37 -69 81 -77 97 l-16 29 30 -11 c18 -7 34 -23 41 -42 7 -16 23 -45 36
-63 36 -48 63 -39 153 52 45 45 56 25 11 -22 -22 -23 -44 -42 -49 -42 -4 0
-22 -11 -40 -24 l-32 -23 40 -45 c22 -25 49 -48 61 -51 21 -6 21 -3 17 51 -3
31 -3 49 -1 39 4 -15 10 -17 36 -11 18 4 42 8 54 8 12 1 25 4 29 8 4 5 18 8
32 8 16 0 22 4 19 14 -4 10 0 12 14 9 12 -3 19 0 19 8 0 15 92 49 133 49 14 0
39 11 55 25 17 14 33 25 37 25 4 0 21 6 38 14 39 17 180 61 224 71 18 3 35 11
38 16 4 5 14 9 24 9 10 0 24 7 31 15 7 8 21 15 33 15 11 0 35 10 55 22 37 23
129 51 224 69 l57 11 7 43 c3 24 3 85 0 137 -14 215 -18 468 -8 468 6 0 13 -4
16 -8 5 -8 77 -45 219 -112 73 -34 222 -59 344 -57 37 0 68 -5 77 -12 23 -20
163 -24 190 -6 12 8 41 21 64 29 24 9 55 25 69 36 16 13 41 20 66 20 41 0 85
11 145 36 18 8 40 14 48 14 9 0 33 14 54 30 21 16 43 30 50 30 7 0 24 6 38 14
56 30 159 66 200 71 24 3 52 9 62 15 10 5 29 10 42 10 13 0 33 7 44 15 10 8
26 15 34 15 13 0 15 146 17 1248 1 686 7 1544 13 1907 5 363 11 813 12 1001
l3 341 -88 129 c-48 71 -155 228 -238 349 -82 121 -156 235 -165 254 -60 139
-116 717 -123 1261 -1 122 -7 220 -12 226 -18 22 -21 64 -4 64 11 0 15 12 16
48 0 26 3 82 5 124 4 69 2 83 -21 125 -25 48 -25 48 -5 62 18 12 19 15 5 31
-11 13 -13 24 -5 50 11 38 11 39 -19 45 -11 3 -30 7 -41 9 -12 3 -21 -2 -25
-15 -5 -15 -16 -19 -46 -19 -26 0 -39 4 -38 13 4 34 -2 77 -12 77 -7 0 -9 -10
-7 -25 3 -14 1 -25 -3 -25 -5 0 -9 11 -9 25 0 34 -20 32 -21 -2 -1 -21 -2 -23
-6 -8 -8 31 -23 42 -23 17 0 -12 -4 -22 -10 -22 -5 0 -10 9 -10 19 0 32 -20
35 -21 4 -1 -28 -1 -28 -8 -3 -7 24 -10 25 -71 21 -121 -6 -129 -7 -136 -13
-3 -4 -12 -4 -20 -1 -9 3 -14 -2 -14 -13 0 -16 -2 -16 -10 -4 -8 12 -10 12
-15 -2 -4 -10 -4 -22 0 -28 4 -6 -1 -17 -11 -25 -18 -13 -18 -14 6 -24 18 -7
20 -10 8 -10 -10 -1 -18 -7 -18 -15 0 -8 -6 -17 -12 -19 -7 -3 13 -6 45 -6 65
-1 75 -19 19 -35 -39 -11 -40 -18 -7 -36 14 -7 25 -17 25 -20 0 -7 -58 -24
-73 -21 -4 1 -10 -6 -14 -15 -5 -13 -7 -13 -14 -2 -6 8 -9 -2 -9 -30 0 -26 -4
-41 -11 -40 -6 2 -14 -3 -16 -9 -3 -10 11 -13 52 -13 64 0 67 -16 5 -26 -22
-4 -47 -12 -56 -18 -12 -10 -2 -11 51 -8 46 3 66 1 61 -6 -3 -6 -19 -13 -35
-17 -24 -5 -27 -10 -23 -33 2 -15 9 -33 15 -39 7 -10 0 -13 -31 -13 -32 0 -42
-4 -47 -20 -10 -31 4 -43 44 -36 20 3 50 2 66 -3 l30 -8 -36 -15 c-20 -9 -40
-21 -44 -27 -3 -7 -9 -64 -11 -129 -5 -138 -11 -183 -29 -211 -12 -20 -23 10
-25 69 -2 37 -4 29 -16 -45 -8 -49 -13 -97 -11 -106 3 -8 -2 -24 -9 -34 -10
-14 -14 -57 -14 -159 0 -156 -21 -424 -45 -586 -16 -109 -27 -153 -51 -207 -8
-17 -14 -40 -14 -51 0 -23 -80 -147 -161 -252 -205 -261 -228 -294 -223 -316
3 -12 -2 -36 -11 -53 -15 -30 -15 -33 5 -61 12 -17 19 -30 17 -30 -10 0 -343
468 -355 500 -3 8 -32 55 -65 104 -33 49 -68 109 -79 133 -22 49 -65 260 -73
362 -4 36 -8 76 -11 89 -4 19 0 22 26 22 l30 0 0 -85 0 -85 329 0 c281 0 330
2 335 15 3 9 -28 54 -84 121 -50 58 -90 111 -90 116 0 6 35 51 78 102 111 131
107 124 92 141 -10 11 -36 15 -111 15 l-99 0 0 88 c0 141 19 132 -291 132
l-259 0 0 53 c0 30 -3 57 -7 61 -5 4 -6 115 -5 246 3 196 1 242 -11 262 -8 12
-17 35 -21 51 -5 22 -3 27 14 27 18 0 19 6 16 60 -1 33 1 60 5 60 17 0 -15 62
-37 72 -17 8 -24 20 -25 42 l-2 31 -6 -30 c-10 -47 -31 -42 -31 7 0 24 -3 54
-7 68 -6 22 -5 24 10 11 9 -7 17 -10 17 -5 0 5 5 2 10 -6 6 -10 10 -11 10 -3
0 9 7 10 25 3 28 -11 32 -4 11 19 -7 9 -16 28 -20 42 -5 22 -2 28 16 32 l22 6
-22 24 c-13 13 -18 27 -13 33 14 16 22 62 11 69 -6 4 -29 8 -50 9 -33 2 -40 0
-40 -16 0 -14 -8 -18 -39 -18 -61 0 -67 5 -63 55 5 52 -15 63 -21 13 l-3 -33
-8 33 c-5 17 -13 32 -18 32 -6 0 -7 -11 -4 -25 4 -14 2 -25 -3 -25 -4 0 -12
15 -16 33 l-8 32 -4 -27 c-5 -32 -23 -38 -23 -9 0 11 -4 23 -10 26 -5 3 -10
-3 -10 -14 0 -11 -4 -23 -10 -26 -5 -3 -10 3 -10 14 0 26 -18 37 -27 15 -6
-15 -7 -15 -18 -1 -7 9 -14 15 -16 12z m306 -135 c-3 -5 -26 -10 -50 -10 -24
0 -47 5 -50 10 -4 6 15 10 50 10 35 0 54 -4 50 -10z m45 -46 c12 -5 12 -7 -3
-16 -18 -9 -111 -2 -132 10 -27 17 87 21 135 6z m-50 -54 c18 -6 8 -8 -40 -9
-45 0 -60 2 -50 9 18 11 55 11 90 0z m-150 -106 c0 -41 -4 -63 -10 -59 -18 11
-12 125 7 125 2 0 3 -30 3 -66z m40 1 c0 -37 -4 -65 -10 -65 -11 0 -14 113 -3
123 12 13 13 7 13 -58z m33 3 c-8 -84 -13 -86 -13 -5 0 37 4 67 9 67 5 0 7
-28 4 -62z m39 49 c-6 -7 -12 -37 -15 -67 -3 -54 -3 -54 -5 13 -2 56 1 67 14
67 12 0 14 -3 6 -13z m43 3 c3 -5 2 -10 -4 -10 -5 0 -13 5 -16 10 -3 6 -2 10
4 10 5 0 13 -4 16 -10z m-198 -92 c-2 -18 -4 -4 -4 32 0 36 2 50 4 33 2 -18 2
-48 0 -65z m200 -10 c-2 -18 -4 -6 -4 27 0 33 2 48 4 33 2 -15 2 -42 0 -60z
m-30 20 c-3 -8 -6 -5 -6 6 -1 11 2 17 5 13 3 -3 4 -12 1 -19z m-210 -20 c-3
-7 -5 -2 -5 12 0 14 2 19 5 13 2 -7 2 -19 0 -25z m-320 0 c-3 -8 -6 -5 -6 6
-1 11 2 17 5 13 3 -3 4 -12 1 -19z m2418 2 c-3 -5 -19 -10 -35 -10 -16 0 -32
5 -35 10 -4 6 10 10 35 10 25 0 39 -4 35 -10z m19 -39 c14 -5 16 -10 8 -15
-16 -10 -103 4 -96 15 6 11 61 11 88 0z m-1850 -20 c3 -5 0 -11 -7 -13 -20 -7
-97 3 -97 13 0 12 97 12 104 0z m31 -31 c3 -5 1 -10 -4 -10 -6 0 -11 5 -11 10
0 6 2 10 4 10 3 0 8 -4 11 -10z m1790 0 c27 -7 25 -8 -17 -9 -27 0 -48 4 -48
9 0 11 21 11 65 0z m-1825 -20 c19 -12 -42 -12 -80 0 -21 7 -17 8 20 9 25 0
52 -4 60 -9z m10 -54 c0 -19 -3 -37 -7 -39 -5 -2 -30 -1 -58 2 -46 6 -50 8
-56 39 l-6 32 63 0 64 0 0 -34z m1700 -22 c0 -34 -4 -53 -10 -49 -5 3 -10 28
-10 56 0 27 5 49 10 49 6 0 10 -25 10 -56z m30 -1 c0 -31 -3 -53 -6 -50 -4 4
-7 27 -6 52 1 55 1 55 7 55 3 0 5 -25 5 -57z m27 -25 c-2 -18 -4 -6 -4 27 0
33 2 48 4 33 2 -15 2 -42 0 -60z m35 40 c-5 -71 -10 -77 -11 -15 0 31 2 57 7
57 4 0 6 -19 4 -42z m65 10 c-3 -7 -5 -2 -5 12 0 14 2 19 5 13 2 -7 2 -19 0
-25z m-200 -55 c-2 -16 -4 -3 -4 27 0 30 2 43 4 28 2 -16 2 -40 0 -55z m243
62 c22 1 30 -15 30 -61 0 -39 -1 -40 -30 -36 -29 4 -30 6 -30 61 0 31 4 51 8
46 4 -6 14 -10 22 -10z m-63 -72 c-2 -16 -4 -3 -4 27 0 30 2 43 4 28 2 -16 2
-40 0 -55z m20 -15 c-3 -7 -5 -2 -5 12 0 14 2 19 5 13 2 -7 2 -19 0 -25z
m-2447 2 c0 -5 -6 -10 -12 -10 -7 0 -23 -3 -35 -6 -13 -4 -23 -2 -23 4 0 9 20
17 58 21 6 0 12 -3 12 -9z m548 -7 c-15 -2 -42 -2 -60 0 -18 2 -6 4 27 4 33 0
48 -2 33 -4z m1871 -19 c39 -8 41 -24 2 -24 -37 0 -62 10 -55 21 6 11 12 11
53 3z m-1844 -44 c11 -5 16 -9 11 -9 -5 -1 -2 -8 5 -17 10 -13 14 -65 14 -221
0 -191 -1 -205 -19 -219 -15 -10 -16 -14 -5 -15 8 -1 3 -5 -11 -9 -23 -7 -23
-8 -3 -9 19 -1 22 -8 25 -61 l3 -60 -62 0 -63 0 0 56 c0 64 14 82 65 85 17 1
23 3 13 6 -10 2 -18 10 -18 16 0 7 -4 6 -10 -3 -5 -8 -10 -12 -11 -7 -7 34
-21 72 -30 78 -5 3 -10 86 -11 185 l-1 179 34 4 34 3 -35 13 -35 13 45 1 c25
0 54 -4 65 -9z m1860 -6 c13 -5 14 -8 3 -15 -10 -7 -9 -9 3 -9 13 0 16 -8 14
-32 -3 -33 -3 -33 -51 -30 -27 2 -49 4 -50 5 -1 1 -4 14 -8 29 -5 24 -3 28 21
34 25 7 25 8 8 15 -16 6 -14 8 12 8 17 1 39 -2 48 -5z m-505 -124 c-8 -5 -24
-10 -35 -10 -17 0 -17 2 -5 10 8 5 24 10 35 10 17 0 17 -2 5 -10z m485 0 c27
-7 26 -8 -15 -9 -25 0 -52 4 -60 9 -11 7 -8 9 15 9 17 -1 44 -5 60 -9z m30
-58 c6 -4 11 -14 13 -22 9 -37 14 -302 8 -353 -7 -53 -9 -57 -34 -58 -23 -2
-24 -2 -5 -6 25 -5 29 -23 38 -183 3 -52 14 -237 26 -410 20 -308 19 -400 -4
-418 -61 -44 -91 -30 -101 45 -9 67 -36 704 -36 845 0 117 0 118 25 124 24 6
37 27 13 22 -6 -2 -14 11 -18 27 -4 17 -11 39 -17 50 -6 11 -12 84 -12 167
l-2 147 28 3 28 4 -25 11 c-23 11 -22 12 20 12 25 0 50 -3 55 -7z m-495 -437
c0 -5 -75 -45 -84 -45 -3 0 -5 11 -4 25 2 22 7 25 45 25 24 0 43 -2 43 -5z
m-1183 -81 c6 -17 -33 -64 -55 -64 -10 0 -12 8 -7 33 4 17 9 35 12 40 8 13 44
7 50 -9z m226 2 c6 -15 -28 -66 -44 -66 -12 0 -12 37 1 61 13 22 36 25 43 5z
m-1353 -181 c17 -93 18 -93 40 4 10 42 10 55 0 61 -21 13 -1 30 36 30 35 0 43
-12 21 -34 -7 -8 -21 -51 -31 -97 -34 -163 -33 -161 -69 -157 l-32 3 -19 103
c-11 56 -23 102 -26 102 -4 0 -15 -39 -24 -87 -13 -65 -14 -88 -5 -94 20 -12
-1 -29 -37 -29 -36 0 -43 13 -20 39 19 22 56 207 43 220 -19 19 5 32 56 29
l51 -3 16 -90z m317 71 c25 -22 28 -30 27 -88 -1 -106 -57 -178 -138 -178 -52
0 -81 20 -96 66 -21 63 17 181 68 209 43 23 106 19 139 -9z m167 9 c-4 -8 -10
-15 -14 -15 -8 0 -25 -159 -17 -166 2 -3 21 41 42 96 37 99 38 100 71 100 l33
0 3 -97 3 -97 28 79 c20 56 24 81 16 86 -20 12 1 29 37 29 36 0 43 -10 20 -29
-7 -6 -21 -33 -31 -59 -80 -214 -73 -202 -112 -202 l-36 0 6 108 5 107 -42
-105 -42 -105 -38 -3 -38 -3 3 123 c2 68 0 129 -4 136 -15 22 3 32 58 32 44 0
53 -3 49 -15z m426 -3 c32 -26 39 -115 16 -177 -25 -64 -66 -95 -125 -95 -37
0 -52 5 -70 24 -48 51 -35 174 24 233 29 29 40 33 83 33 33 0 57 -6 72 -18z
m208 6 c9 -9 12 -9 12 0 0 7 9 12 20 12 11 0 18 -5 16 -12 -3 -7 -7 -25 -10
-40 -8 -35 -43 -39 -48 -5 -2 17 -10 22 -33 22 -25 0 -31 -5 -33 -25 -2 -20 6
-30 43 -52 69 -42 82 -103 33 -155 -28 -30 -99 -32 -127 -4 -19 19 -19 19 -24
0 -3 -10 -13 -19 -22 -19 -11 0 -15 5 -12 14 3 8 9 31 13 50 8 46 34 47 54 3
12 -26 21 -32 45 -32 25 0 31 4 33 27 2 19 -4 31 -24 45 -56 39 -74 61 -74 96
0 53 32 87 84 87 23 0 47 -5 54 -12z m234 -5 c17 -15 18 -15 18 0 0 10 7 17
16 17 14 0 15 -7 10 -42 -4 -22 -9 -45 -12 -50 -12 -19 -34 -6 -42 24 -15 59
-62 42 -82 -30 -14 -50 -13 -135 2 -150 22 -22 48 -13 65 23 16 33 33 41 40
19 2 -6 -7 -26 -20 -45 -19 -29 -29 -34 -66 -37 -55 -4 -87 17 -102 68 -29 96
37 220 116 220 22 0 46 -7 57 -17z m-346 -490 c5 -65 9 -162 9 -215 0 -91 -2
-99 -25 -122 -14 -14 -37 -28 -52 -31 -54 -13 -68 49 -82 358 l-6 127 74 0 74
0 8 -117z m838 -1042 c3 -5 -9 -37 -27 -72 l-32 -64 2 -275 c3 -306 3 -442 1
-512 -3 -97 1 -128 17 -128 8 0 15 -2 15 -4 0 -2 3 -13 6 -23 6 -16 5 -15 -9
2 -8 11 -19 17 -23 13 -4 -4 -2 -13 4 -21 6 -7 9 -38 7 -72 -4 -58 -3 -59 10
-30 8 17 14 26 15 21 1 -22 30 20 30 44 0 15 9 35 22 46 l22 19 -17 -25 c-9
-13 -17 -32 -17 -42 0 -17 2 -17 37 2 21 11 45 20 53 19 10 0 9 -3 -5 -9 -11
-5 -31 -18 -45 -29 -20 -16 -22 -21 -11 -35 15 -18 63 -21 92 -6 22 12 27 65
7 73 -7 3 -3 6 8 6 45 2 58 -66 16 -88 -35 -19 -105 -17 -125 4 -12 11 -17 12
-25 2 -19 -24 -39 -123 -22 -112 4 3 6 -4 3 -15 -4 -15 0 -20 16 -20 15 0 27
12 41 44 18 36 25 42 45 39 l23 -5 -16 -45 c-20 -53 -72 -117 -113 -139 -16
-8 -27 -19 -24 -24 3 -5 1 -12 -5 -15 -8 -5 -7 -11 1 -21 9 -11 8 -14 -2 -14
-12 0 -12 -2 0 -9 7 -5 10 -14 7 -20 -4 -6 -2 -11 3 -11 6 0 11 -7 11 -15 0
-8 -4 -15 -8 -15 -4 0 -8 -24 -8 -54 l1 -54 40 37 c39 35 39 36 17 43 -13 4
-31 4 -40 1 -13 -5 -12 -2 4 20 26 35 40 40 81 25 28 -10 36 -10 43 2 5 8 11
12 14 10 2 -3 -20 -30 -49 -61 -30 -31 -57 -54 -60 -51 -3 3 -5 1 -5 -5 0 -14
46 -25 71 -18 11 4 17 11 13 16 -3 5 0 8 7 7 7 -2 26 21 43 49 25 43 36 53 59
53 32 0 32 0 8 -42 -34 -56 -52 -106 -41 -113 14 -9 63 43 54 57 -4 7 -3 8 4
4 7 -4 21 13 37 44 22 43 29 50 56 50 26 0 28 -2 20 -19 -6 -10 -8 -21 -5 -24
3 -3 -10 -25 -29 -50 -19 -25 -37 -50 -38 -55 -2 -5 -17 -12 -33 -16 -23 -6
-27 -4 -23 9 6 13 4 13 -18 -1 -35 -23 -69 -15 -75 19 l-5 27 -27 -29 c-29
-30 -71 -44 -87 -28 -10 10 -31 1 -31 -14 0 -6 4 -8 9 -5 5 4 7 -2 4 -13 -6
-24 55 -63 94 -60 16 1 35 -1 43 -4 8 -4 38 -8 65 -10 28 -2 2 -4 -57 -5
l-107 -2 -3 -52 c-3 -48 -6 -53 -29 -58 -24 -5 -25 -7 -28 -100 -2 -52 -5 -98
-7 -101 -7 -13 28 -19 102 -19 l74 0 0 40 c0 46 9 49 44 17 33 -31 56 -31 56
0 l0 25 329 -4 c316 -4 330 -5 355 -26 15 -11 35 -18 44 -15 11 3 13 2 5 -4
-8 -6 7 -24 50 -58 86 -70 90 -72 75 -38 -6 15 -21 37 -32 48 -18 18 -46 66
-46 81 0 3 15 4 33 2 22 -2 35 -10 42 -26 5 -12 16 -20 22 -17 16 6 43 -4 43
-16 0 -5 -12 -7 -27 -3 -21 4 -24 3 -14 -4 16 -12 22 -31 26 -81 2 -28 8 -38
33 -49 33 -16 79 -9 52 8 -13 8 -12 10 2 10 10 0 23 9 30 20 7 11 22 20 33 21
20 0 20 0 0 8 -11 5 -26 6 -33 4 -8 -4 -10 0 -5 13 5 13 3 15 -8 9 -10 -6 -11
-5 -3 4 24 26 104 -36 104 -80 0 -11 5 -19 10 -19 6 0 10 27 10 60 0 59 0 60
29 60 28 0 29 1 28 50 -1 36 -5 50 -16 53 -9 3 -1 5 17 6 17 0 32 -3 32 -7 0
-4 9 -8 20 -9 14 -1 20 4 20 18 0 10 4 19 8 19 5 0 7 -19 6 -42 -1 -24 1 -37
3 -30 3 6 13 12 23 12 14 0 18 6 15 21 -3 13 0 19 8 16 9 -3 12 -254 12 -1105
0 -605 -3 -1103 -6 -1106 -14 -15 -311 -37 -587 -45 -278 -8 -615 -3 -957 15
l-131 6 -12 -26 c-7 -15 -8 -26 -2 -26 6 0 10 -5 10 -11 0 -6 -10 -9 -22 -7
l-22 3 2 680 c1 374 4 806 7 960 3 154 8 593 11 975 3 382 7 697 10 701 2 3 4
207 4 452 l1 446 -24 49 -24 49 46 30 c63 42 103 54 115 34z m386 -971 c0 -5
-5 -10 -11 -10 -5 0 -7 5 -4 10 3 6 8 10 11 10 2 0 4 -4 4 -10z m-1300 -110
c0 -5 -4 -10 -10 -10 -5 0 -10 5 -10 10 0 6 5 10 10 10 6 0 10 -4 10 -10z
m2099 -104 c15 -18 3 -46 -20 -46 -22 0 -34 22 -25 45 7 19 30 19 45 1z
m-2862 -58 c-3 -8 -6 -5 -6 6 -1 11 2 17 5 13 3 -3 4 -12 1 -19z m1998 -35
c-18 -44 -18 -63 2 -63 10 0 25 6 33 13 12 10 12 9 1 -5 -16 -22 -68 -33 -85
-19 -38 31 -16 91 32 91 19 0 23 -4 17 -17z m178 1 c17 -4 27 -2 27 5 0 6 5
11 10 11 21 0 8 -16 -44 -55 -30 -22 -53 -42 -51 -45 2 -3 -6 -6 -18 -7 -20
-2 -20 0 7 22 l29 23 -31 7 c-18 3 -37 3 -43 0 -8 -6 -8 -2 0 13 15 28 42 43
66 37 11 -3 32 -8 48 -11z m201 7 c3 -5 24 -7 46 -4 22 3 40 3 40 0 0 -4 -16
-32 -36 -62 -19 -31 -34 -65 -32 -77 3 -20 3 -20 33 2 l30 22 -28 -26 c-37
-34 -74 -34 -87 0 -7 19 -7 31 1 40 6 8 8 14 3 14 -4 0 0 6 9 13 25 19 33 65
13 73 -21 8 -54 -21 -72 -65 -18 -42 -19 -84 -1 -78 6 2 11 9 10 15 -2 7 4 9
13 5 14 -5 13 -9 -7 -24 -44 -34 -89 -19 -89 29 l0 24 -35 -31 c-47 -41 -81
-49 -118 -28 -28 17 -53 14 -42 -4 4 -5 -3 -9 -14 -9 -12 0 -21 1 -21 3 0 2
18 18 40 35 39 32 39 32 73 16 49 -24 77 -13 132 52 27 31 58 60 69 64 28 12
64 12 70 1z m297 -1 c24 -13 24 -44 0 -78 -31 -45 -42 -70 -32 -76 16 -10 71
44 103 101 26 46 34 53 60 53 l30 0 -36 -64 c-38 -68 -44 -91 -23 -99 6 -3 -3
-6 -20 -6 -33 -1 -37 5 -36 47 1 6 -15 -2 -34 -18 -48 -42 -87 -39 -91 7 -2
23 4 43 22 66 25 32 33 57 20 57 -3 0 -20 -10 -37 -22 -17 -12 -27 -16 -23 -9
7 11 65 51 74 51 2 0 12 -5 23 -10z m-2955 -22 c-9 -12 -16 -30 -16 -40 0 -16
3 -16 46 2 94 41 183 15 156 -46 -13 -26 -65 -54 -104 -54 -13 0 -38 9 -55 20
l-33 20 -19 -38 c-11 -23 -18 -56 -17 -87 1 -43 4 -50 25 -55 l24 -5 -27 -13
c-35 -16 -46 -15 -68 5 -39 35 -11 170 45 211 9 7 17 25 17 39 0 15 7 35 17
45 22 25 27 23 9 -4z m2199 5 c0 -10 -15 -38 -33 -62 -17 -23 -34 -52 -37 -62
-4 -13 -16 -19 -34 -19 l-29 0 39 80 c35 72 42 80 67 80 21 0 28 -5 27 -17z
m663 -5 c-7 -13 -11 -26 -10 -31 5 -16 -66 -101 -91 -110 -32 -10 -47 -3 -29
15 7 7 12 17 12 24 0 6 17 37 37 68 31 46 42 56 65 56 27 0 28 -2 16 -22z
m420 -1 c5 -25 -23 -54 -65 -68 -29 -9 -34 -15 -31 -37 2 -22 8 -27 30 -27 32
1 28 -10 -6 -19 -64 -16 -104 39 -72 98 35 65 135 102 144 53z m131 14 c9 -6
11 -18 7 -35 -9 -36 -26 -33 -26 5 0 27 -2 30 -15 19 -19 -16 -38 -86 -31
-116 3 -12 14 -24 24 -27 16 -4 16 -4 -1 -12 -30 -13 -67 10 -67 42 l0 26 -27
-24 c-27 -24 -27 -24 2 14 44 57 101 117 111 117 5 0 15 -4 23 -9z m-2094
-131 c7 -23 -10 -50 -30 -50 -20 0 -37 27 -30 50 4 13 15 20 30 20 15 0 26 -7
30 -20z m925 -64 c0 -27 -12 -46 -30 -46 -20 0 -36 33 -25 50 10 15 55 12 55
-4z m-1660 -16 c0 -5 -29 -31 -65 -58 -35 -27 -62 -52 -60 -56 3 -3 2 -4 -1
-1 -4 2 -16 -1 -28 -7 -19 -10 -17 -12 26 -25 62 -18 87 -7 137 60 55 75 133
107 173 70 11 -9 18 -11 18 -5 0 7 17 12 40 12 l41 0 -41 -60 c-42 -61 -62
-120 -41 -120 20 0 91 72 124 126 28 48 36 54 64 54 37 0 40 -6 17 -31 -9 -10
-17 -27 -18 -36 -3 -34 -68 -112 -98 -119 -39 -8 -43 -1 -22 33 l18 28 -30
-26 c-16 -15 -38 -31 -49 -37 -23 -11 -63 1 -71 22 -4 11 -12 10 -43 -7 -25
-14 -45 -18 -64 -13 -23 5 -27 12 -27 43 l0 37 -32 -31 c-60 -56 -96 -65 -149
-37 -33 17 -77 11 -49 -6 12 -8 11 -10 -7 -10 -32 0 -36 15 -8 28 14 7 52 33
85 59 l60 48 -38 6 c-20 4 -40 5 -44 2 -21 -12 -5 18 19 37 19 15 35 20 53 15
65 -16 76 -16 89 -1 15 18 21 20 21 6z m-265 -31 c-9 -17 -14 -37 -11 -45 7
-17 37 -18 56 -1 12 10 12 9 1 -5 -15 -20 -62 -32 -91 -23 -11 4 -23 20 -28
38 -7 26 -5 35 12 49 12 10 33 17 49 18 l28 0 -16 -31z m786 12 c21 -16 22
-21 10 -49 -7 -17 -24 -45 -37 -63 -27 -37 -31 -59 -10 -59 19 0 102 94 127
142 16 31 25 38 49 38 17 0 30 -2 30 -6 0 -3 -16 -35 -35 -71 -36 -69 -44
-103 -22 -103 6 0 4 -5 -6 -11 -37 -22 -83 25 -61 63 4 7 -11 -3 -32 -23 -47
-43 -69 -52 -95 -39 -30 17 -25 68 12 119 43 57 26 75 -27 30 -24 -20 -31 -24
-19 -10 19 23 73 61 86 61 4 0 17 -8 30 -19z m-876 -11 c-1 -11 -5 -23 -10
-27 -4 -5 -5 -2 0 6 5 10 4 12 -4 7 -6 -4 -9 -11 -6 -16 3 -4 -11 -31 -30 -60
-19 -29 -35 -56 -35 -60 0 -10 -50 -23 -58 -15 -3 3 14 46 38 95 42 85 46 90
75 90 25 0 31 -4 30 -20z m1236 4 c16 -20 4 -41 -41 -71 -46 -32 -58 -29 -21
6 32 30 42 71 17 71 -29 0 -73 -102 -62 -145 4 -16 15 -25 34 -27 l27 -4 -29
-8 c-44 -13 -79 4 -92 44 -10 31 -9 39 12 70 27 39 88 80 120 80 12 0 27 -7
35 -16z m147 7 c8 -4 12 -21 10 -36 -4 -37 -28 -46 -28 -11 0 60 -38 24 -55
-51 -17 -80 32 -98 72 -28 23 41 32 42 12 2 -33 -64 -89 -86 -122 -49 -37 41
-10 122 55 162 37 23 38 23 56 11z m808 -69 c10 -20 12 -21 24 -7 32 38 81 42
94 9 3 -9 -8 -42 -26 -75 -18 -32 -29 -61 -26 -65 18 -18 97 72 97 110 -1 13
92 56 120 56 15 0 37 -15 60 -40 20 -22 42 -40 49 -40 6 0 22 16 34 35 17 26
30 35 51 35 15 0 27 -3 27 -7 0 -3 -13 -27 -29 -52 -34 -53 -49 -101 -32 -101
19 0 57 44 91 104 27 48 36 56 61 56 l28 0 -41 -76 c-27 -51 -37 -79 -30 -86
25 -25 92 54 97 115 2 18 3 35 4 40 1 4 10 7 20 7 20 0 31 -18 31 -51 0 -10 5
-19 10 -19 6 0 10 -5 10 -11 0 -5 -5 -7 -11 -4 -6 4 -26 -11 -45 -33 -54 -64
-143 -81 -159 -31 -7 21 -7 21 -28 1 -35 -31 -61 -35 -82 -12 -16 17 -17 26
-9 49 9 24 8 28 -12 38 -20 9 -24 7 -35 -18 -31 -76 -134 -107 -182 -55 l-22
24 -29 -25 c-20 -17 -38 -23 -60 -21 -44 4 -46 40 -7 98 32 48 27 78 -8 46
-15 -14 -94 -123 -96 -132 0 -1 -15 -5 -34 -9 l-34 -7 42 75 c22 41 41 77 41
81 0 10 -22 7 -40 -6 -9 -7 -5 -3 8 10 29 28 62 25 78 -6z m834 10 c0 -5 -13
-33 -30 -63 -29 -53 -38 -89 -22 -89 16 0 54 49 78 99 19 41 28 51 48 51 25 0
25 0 9 -37 -8 -21 -24 -55 -34 -75 -11 -21 -17 -38 -14 -38 3 0 1 -6 -5 -12
-6 -7 -24 -34 -40 -60 -29 -47 -90 -89 -127 -87 -15 0 -15 2 3 9 28 11 70 62
100 123 l26 50 -27 -22 c-35 -26 -51 -27 -65 0 -8 14 -8 29 -1 50 5 16 8 29 5
29 -5 0 10 20 43 56 21 23 53 33 53 16z m-3323 -64 c-3 -8 -6 -5 -6 6 -1 11 2
17 5 13 3 -3 4 -12 1 -19z m1353 -1 c0 -2 -12 -14 -27 -28 l-28 -24 24 28 c23
25 31 32 31 24z m180 -12 c-7 -8 -17 -15 -23 -15 -6 0 -2 7 9 15 25 19 30 19
14 0z m1890 -28 c0 -2 -12 -14 -27 -28 l-28 -24 24 28 c23 25 31 32 31 24z
m-3072 -61 c3 -44 -49 -61 -64 -21 -10 26 4 45 34 45 22 0 28 -5 30 -24z
m2262 -10 c0 -2 -7 -7 -16 -10 -8 -3 -12 -2 -9 4 6 10 25 14 25 6z m540 -16
c0 -5 -4 -10 -10 -10 -18 0 -22 -48 -7 -80 15 -28 14 -30 -4 -30 -48 0 -77 71
-41 102 28 25 62 35 62 18z m-783 -72 c-3 -8 -6 -5 -6 6 -1 11 2 17 5 13 3 -3
4 -12 1 -19z m-1942 -24 c-9 -15 -12 -23 -6 -20 19 12 12 -2 -23 -49 -19 -24
-37 -54 -41 -65 -5 -15 -15 -20 -41 -20 -19 0 -34 5 -34 11 0 5 -10 3 -22 -5
-75 -53 -108 22 -52 121 26 47 33 53 62 53 19 0 32 -3 30 -7 -2 -5 -18 -36
-36 -70 -34 -67 -40 -93 -19 -93 20 0 60 47 52 60 -3 6 -1 9 6 8 7 -2 26 20
42 49 25 43 36 53 61 55 41 4 42 3 21 -28z m123 3 l3 -28 35 31 c36 31 72 38
92 18 19 -19 14 -39 -24 -101 -45 -72 -35 -95 20 -46 34 29 72 88 75 114 1 6
4 10 9 11 4 0 24 8 44 17 66 30 132 14 156 -37 18 -39 56 -35 84 9 19 28 29
35 56 35 17 0 32 -2 32 -5 0 -2 -16 -29 -35 -60 -37 -57 -55 -115 -37 -115 20
0 61 45 100 110 33 55 44 65 71 68 17 2 31 1 31 -1 0 -3 -18 -36 -40 -73 -42
-72 -47 -93 -28 -112 8 -8 4 -9 -18 -3 -16 4 -34 17 -39 28 -11 21 -11 21 -38
-3 -58 -50 -116 -20 -96 50 10 34 12 31 -23 40 -22 5 -28 3 -28 -9 0 -25 -29
-63 -66 -85 -26 -17 -47 -21 -93 -18 -33 1 -59 5 -59 8 1 3 -2 17 -6 33 l-8
27 -39 -35 c-85 -77 -149 -12 -79 81 31 41 38 64 18 64 -15 0 -85 -76 -114
-126 -20 -34 -31 -43 -59 -46 -19 -2 -35 -2 -35 0 0 2 16 30 35 63 37 63 53
109 38 109 -5 0 -20 -7 -33 -16 -21 -13 -21 -12 4 11 40 36 90 32 94 -8z
m1762 21 c0 -4 -4 -8 -9 -8 -6 0 -12 4 -15 8 -3 5 1 9 9 9 8 0 15 -4 15 -9z
m-954 -22 c3 -14 3 -29 0 -34 -6 -10 15 -22 40 -22 7 0 23 18 34 40 16 30 26
40 45 40 32 0 32 -15 -5 -81 -29 -52 -39 -99 -22 -99 22 0 70 78 64 103 -1 4
2 7 7 7 5 0 14 13 21 29 8 21 20 30 41 33 35 5 34 -2 -18 -105 -28 -57 -31
-66 -14 -58 11 6 34 28 51 48 18 21 27 28 21 17 -11 -23 -77 -84 -90 -84 -5 0
-18 -22 -29 -49 -44 -106 -195 -158 -262 -91 -45 45 -10 110 58 110 36 0 37
-1 12 -13 -19 -10 -25 -21 -26 -47 -1 -49 12 -70 44 -70 37 0 84 42 127 114
43 73 44 83 6 55 -50 -37 -93 -1 -70 58 11 29 11 28 -17 37 -16 5 -24 0 -35
-21 -18 -33 -85 -83 -113 -83 -19 1 -19 2 -4 11 26 15 69 94 72 131 2 18 4 36
5 41 0 4 12 7 26 7 18 0 26 -7 31 -24z m1100 -78 c-5 -25 -4 -30 6 -20 17 17
33 15 18 -3 -6 -8 -9 -23 -5 -35 4 -11 2 -20 -4 -20 -6 0 -11 5 -11 11 0 8 -5
7 -15 -1 -9 -7 -17 -11 -19 -9 -7 8 18 109 27 109 5 0 7 -14 3 -32z m70 1 c-3
-17 -6 -43 -6 -56 0 -16 -5 -23 -12 -20 -7 2 -12 9 -11 15 1 5 4 27 7 48 2 22
5 40 5 42 1 1 6 2 12 2 8 0 9 -11 5 -31z m66 -44 c-4 -29 -7 -33 -31 -32 -18
2 -27 9 -29 23 -4 27 22 54 46 47 14 -3 17 -12 14 -38z m58 24 c0 -6 -6 -7
-12 -3 -9 6 -9 3 1 -9 7 -9 11 -24 7 -32 -6 -17 -46 -21 -46 -4 0 6 7 9 15 5
8 -3 15 -1 15 4 0 6 -4 10 -10 10 -14 0 -12 38 3 43 15 5 27 -1 27 -14z m41
-6 c1 -17 2 -17 6 0 4 16 23 25 23 10 -1 -22 -48 -88 -65 -91 -19 -4 -19 -3
-1 10 14 11 18 24 14 51 -3 26 0 37 9 37 7 0 14 -8 14 -17z m89 7 c0 -6 -8
-10 -17 -8 -12 2 -19 -5 -21 -21 -3 -19 0 -22 13 -18 9 4 14 3 10 -3 -8 -13
-32 -13 -40 1 -4 5 -4 21 -1 35 5 17 13 24 31 24 14 0 25 -5 25 -10z m44 -15
c-10 -15 -12 -25 -5 -25 6 0 11 -4 11 -10 0 -5 -11 -9 -25 -8 -29 3 -31 10
-10 28 17 14 21 35 5 25 -5 -3 -10 -1 -10 4 0 6 11 11 25 11 25 0 25 -1 9 -25z
m82 3 c-3 -13 -6 -29 -6 -35 0 -7 -5 -13 -11 -13 -7 0 -9 11 -5 30 3 17 3 30
0 30 -3 0 -10 -13 -15 -30 -6 -16 -15 -30 -21 -30 -6 0 -7 7 -4 16 3 9 6 24 6
35 0 15 7 19 31 19 28 0 31 -3 25 -22z m35 0 l0 -23 11 23 c6 12 15 22 20 22
4 0 -3 -22 -17 -50 -16 -31 -32 -50 -43 -50 -16 1 -16 1 1 11 14 8 16 18 11
50 -4 26 -3 39 5 39 6 0 11 -10 12 -22z m-2731 -78 c0 -5 -5 -10 -11 -10 -5 0
-7 5 -4 10 3 6 8 10 11 10 2 0 4 -4 4 -10z m480 6 c0 -2 -7 -7 -16 -10 -8 -3
-12 -2 -9 4 6 10 25 14 25 6z m-289 -47 c-5 -13 -10 -19 -10 -12 -1 15 10 45
15 40 3 -2 0 -15 -5 -28z m2790 -52 c-10 -9 -11 -8 -5 6 3 10 9 15 12 12 3 -3
0 -11 -7 -18z m-2315 -73 c-3 -8 -2 -12 4 -9 6 3 10 -2 10 -13 0 -15 -9 -19
-50 -21 -42 -2 -50 1 -51 16 0 16 -1 16 -9 -2 l-9 -20 -1 20 -1 20 -9 -20 c-8
-18 -9 -18 -9 6 -1 22 3 26 25 25 14 -1 33 -11 41 -21 13 -16 15 -17 10 -3 -9
27 12 32 22 6 10 -23 10 -22 10 5 1 15 6 27 12 27 6 0 8 -7 5 -16z m2335 -7
c-10 -9 -11 -8 -5 6 3 10 9 15 12 12 3 -3 0 -11 -7 -18z m-2521 -6 c0 -24 -18
-37 -32 -23 -8 8 -7 16 2 27 17 21 30 19 30 -4z m48 -6 c1 -17 -3 -25 -14 -25
-11 0 -14 5 -10 16 3 9 6 20 6 25 0 21 16 7 18 -16z m199 -7 c-2 -25 -37 -24
-37 1 0 13 6 19 19 18 12 -1 19 -8 18 -19z m877 -34 c3 -8 2 -12 -4 -9 -6 3
-10 10 -10 16 0 14 7 11 14 -7z m-1537 -24 c0 -18 -4 -27 -11 -23 -6 4 -5 -1
3 -10 7 -9 11 -24 7 -32 -8 -21 -36 -19 -36 3 0 14 2 15 10 2 5 -8 10 -10 10
-4 0 5 -5 15 -10 20 -7 7 -5 21 6 42 8 18 17 32 18 32 1 0 3 -13 3 -30z m38
-27 c-7 -49 -11 -60 -20 -51 -9 8 7 98 17 98 6 0 8 -18 3 -47z m45 43 c0 -3
-4 -8 -10 -11 -5 -3 -10 -1 -10 4 0 6 5 11 10 11 6 0 10 -2 10 -4z m115 -23
c-5 -23 -4 -26 6 -15 18 17 34 15 19 -3 -6 -8 -9 -23 -5 -35 4 -11 2 -20 -4
-20 -6 0 -11 5 -11 12 0 9 -3 9 -12 0 -22 -22 -25 -13 -15 38 5 28 14 50 19
50 6 0 7 -12 3 -27z m461 -5 c-4 -26 -3 -29 5 -15 5 9 15 17 21 17 7 0 6 -5
-2 -15 -6 -8 -9 -23 -5 -35 4 -11 2 -20 -4 -20 -6 0 -11 6 -11 13 0 8 -3 9 -8
1 -9 -14 -82 -17 -82 -2 0 7 -4 7 -13 0 -20 -17 -58 -11 -48 6 5 8 6 23 4 33
-4 15 0 19 21 19 29 0 33 -11 11 -30 -20 -16 -19 -31 1 -23 8 3 20 16 25 29 5
14 17 24 29 24 27 0 25 -24 -2 -43 l-23 -16 27 2 c23 1 27 7 33 44 3 24 11 43
17 43 6 0 8 -12 4 -32z m129 -15 c-7 -49 -11 -60 -20 -51 -9 8 7 98 17 98 6 0
8 -18 3 -47z m145 30 c0 -10 -3 -34 -6 -54 -5 -27 -11 -35 -25 -34 -33 2 -44
21 -31 50 6 14 18 25 27 25 8 0 15 7 15 15 0 8 5 15 10 15 6 0 10 -8 10 -17z
m90 7 c0 -5 -5 -10 -11 -10 -5 0 -7 5 -4 10 3 6 8 10 11 10 2 0 4 -4 4 -10z
m-953 -55 c-1 -19 -6 -34 -10 -32 -5 1 -8 6 -8 10 1 4 1 18 1 32 0 14 4 25 10
25 5 0 9 -16 7 -35z m36 8 c6 -31 0 -46 -14 -38 -12 8 -12 65 0 65 5 0 11 -12
14 -27z m41 5 c4 12 11 22 17 22 5 0 1 -16 -8 -35 -9 -19 -20 -35 -24 -35 -11
0 -21 49 -12 63 5 8 9 3 13 -13 l6 -25 8 23z m146 -7 c-4 -16 -6 -32 -3 -35 3
-3 -8 -4 -23 -3 -51 4 -40 67 12 67 20 0 22 -3 14 -29z m60 12 c0 -15 2 -14
15 3 13 16 16 17 25 4 6 -10 10 -11 10 -2 0 6 4 12 10 12 5 0 2 -16 -7 -35
-18 -38 -33 -46 -33 -17 -1 16 -1 16 -11 0 -16 -29 -29 -21 -29 17 0 19 5 35
10 35 6 0 10 -8 10 -17z m150 2 c0 -8 -4 -15 -10 -15 -5 0 -10 5 -10 11 0 5
-4 7 -10 4 -17 -10 -12 -48 5 -41 8 3 15 1 15 -5 0 -6 -10 -9 -22 -7 -26 3
-35 32 -18 53 16 20 50 19 50 0z m248 -17 c4 -34 -29 -56 -48 -32 -10 11 -10
20 -1 40 15 33 45 28 49 -8z m107 14 c-3 -8 -5 -24 -5 -36 0 -17 -5 -22 -20
-21 -33 2 -43 18 -29 48 9 19 19 26 36 25 15 -2 22 -7 18 -16z m125 4 c0 -8
-4 -18 -10 -21 -5 -3 -10 -11 -10 -16 0 -6 5 -7 11 -3 7 4 10 1 7 -6 -4 -13
-48 -23 -48 -11 0 2 10 16 23 29 17 20 18 24 5 19 -18 -6 -24 3 -11 16 12 12
33 7 33 -7z m36 -8 c-3 -13 -6 -32 -6 -42 0 -14 -3 -17 -10 -10 -12 12 -2 74
12 74 6 0 8 -10 4 -22z m60 10 c4 -6 -3 -19 -16 -30 -21 -17 -19 -23 5 -18 6
1 4 -4 -3 -11 -10 -11 -15 -10 -29 3 -15 16 -15 19 1 42 18 28 31 32 42 14z
m414 3 c0 -6 -4 -13 -10 -16 -5 -3 -10 1 -10 9 0 9 5 16 10 16 6 0 10 -4 10
-9z m-376 -160 c-4 -3 -9 0 -11 7 -3 6 -10 9 -15 6 -7 -4 -8 -2 -4 5 6 9 11 9
22 0 8 -6 12 -15 8 -18z m-4 -86 c0 -17 -2 -18 -25 -9 -13 5 -14 8 -3 15 19
13 28 11 28 -6z m46 -53 c-10 -11 -16 -12 -16 -4 0 7 5 12 10 12 6 0 10 8 11
18 0 11 2 13 6 4 3 -8 -2 -21 -11 -30z m-1141 -2863 c4 -6 -3 -9 -19 -7 -34 5
-40 13 -11 16 13 1 27 -3 30 -9z m487 -101 c-7 -7 -12 -8 -12 -2 0 14 12 26
19 19 2 -3 -1 -11 -7 -17z m-1498 -24 c65 -30 161 -113 154 -134 -3 -10 -9 -9
-26 8 -39 39 -56 26 -25 -18 23 -32 27 -60 9 -60 -8 0 -16 -5 -18 -12 -3 -9
-16 -8 -52 2 -33 9 -50 10 -54 3 -9 -14 -92 -23 -92 -11 0 5 -5 6 -11 2 -6 -3
-15 0 -20 7 -7 11 -11 11 -17 2 -9 -14 -102 -24 -102 -11 0 4 -5 8 -11 8 -6 0
-23 9 -39 20 -15 11 -30 17 -33 14 -3 -4 -14 1 -23 10 -9 9 -13 20 -9 24 4 4
10 1 12 -5 7 -20 23 -15 23 7 0 26 28 70 44 70 7 0 31 14 53 31 42 33 122 67
159 68 12 1 47 -11 78 -25z m1099 -5 c37 -20 129 -120 123 -134 -3 -8 -2 -17
3 -19 4 -3 6 -19 3 -36 -3 -22 -10 -30 -24 -30 -10 0 -17 -4 -14 -9 5 -8 -81
10 -117 24 -15 6 -16 10 -5 16 9 6 6 9 -12 10 -14 1 -28 1 -32 0 -5 0 -8 3 -8
9 0 5 -8 6 -17 3 -12 -5 -15 -2 -10 10 3 9 0 23 -8 30 -8 9 -10 19 -5 28 5 8
5 16 -1 19 -12 8 -22 78 -13 92 8 13 106 3 137 -13z m181 -24 c3 -8 1 -15 -4
-15 -6 0 -10 7 -10 15 0 8 2 15 4 15 2 0 6 -7 10 -15z m-1154 -195 c0 -5 -4
-10 -10 -10 -5 0 -10 5 -10 10 0 6 5 10 10 10 6 0 10 -4 10 -10z"/>
<path d="M3883 8423 c-9 -21 -18 -71 -21 -110 -4 -62 -2 -74 13 -79 29 -11 54
27 71 106 17 84 9 120 -26 120 -15 0 -26 -11 -37 -37z"/>
<path d="M4493 8448 c-25 -31 -50 -161 -38 -197 8 -28 41 -27 59 2 19 30 39
124 34 167 -2 26 -8 36 -24 38 -11 2 -25 -3 -31 -10z"/>
<path d="M5545 5590 c-3 -5 -15 -10 -25 -10 -10 0 -22 -5 -26 -12 -4 -7 -3 -8
4 -4 15 9 15 1 0 -24 -17 -27 -2 -37 23 -14 26 23 53 74 40 74 -5 0 -13 -4
-16 -10z"/>
<path d="M5493 4685 c-3 -9 -3 -18 -1 -21 3 -3 8 4 11 16 6 23 -1 27 -10 5z"/>
<path d="M6140 4671 c0 -10 30 -24 37 -17 3 3 2 9 -2 15 -8 13 -35 15 -35 2z"/>
<path d="M7030 4670 c-13 -8 -12 -10 3 -10 9 0 17 5 17 10 0 12 -1 12 -20 0z"/>
<path d="M6053 4615 c2 -30 6 -58 10 -61 4 -4 7 -2 7 4 0 7 7 12 16 12 11 0
14 -6 9 -20 -6 -19 8 -29 18 -12 4 8 -3 -17 -10 -36 -3 -8 0 -10 11 -6 9 4 15
12 13 18 -2 6 0 22 5 35 7 19 6 22 -8 17 -11 -4 -15 -2 -11 8 4 10 1 13 -7 10
-10 -4 -12 3 -10 22 3 34 -11 64 -31 64 -12 0 -15 -12 -12 -55z"/>
<path d="M6210 4630 c0 -5 7 -7 16 -3 13 5 15 2 10 -14 -5 -15 0 -25 18 -37
36 -23 41 -20 17 10 -12 15 -21 33 -21 40 0 8 -9 14 -20 14 -11 0 -20 -4 -20
-10z"/>
<path d="M6006 4623 c-11 -11 -7 -22 13 -32 16 -9 18 -8 14 9 -6 23 -17 33
-27 23z"/>
<path d="M6644 4616 c-3 -8 -4 -27 -2 -43 3 -23 5 -20 9 15 5 43 2 53 -7 28z"/>
<path d="M6826 4585 c3 -25 15 -48 29 -60 35 -29 122 -176 130 -219 9 -47 28
-34 44 30 11 43 0 202 -16 227 -3 6 -1 7 5 3 7 -4 12 -2 12 4 0 6 -7 10 -16 8
-8 -2 -14 -7 -14 -12 2 -13 -31 -30 -39 -20 -3 5 -17 11 -31 13 -13 1 -35 12
-49 22 -13 10 -29 19 -37 19 -7 0 -15 6 -18 13 -3 6 -3 -6 0 -28z"/>
<path d="M5490 4581 c-6 -12 -8 -21 -5 -21 3 0 -1 -13 -9 -28 -13 -25 -12 -30
5 -52 10 -14 19 -20 19 -15 0 6 5 3 10 -5 8 -12 10 -9 10 12 0 32 16 46 23 21
4 -16 5 -16 6 -1 0 9 -4 20 -9 23 -14 9 -42 -14 -33 -28 3 -6 1 -7 -5 -3 -12
7 -10 74 2 95 5 7 6 15 3 18 -3 2 -10 -5 -17 -16z"/>
<path d="M6786 4582 c-4 -7 -4 -12 0 -12 4 0 0 -8 -9 -18 -10 -10 -14 -22 -10
-26 4 -4 2 -11 -5 -15 -15 -9 -25 -51 -12 -51 4 0 14 -2 22 -5 10 -4 13 4 10
35 -3 32 -1 40 12 40 17 0 19 13 7 44 -5 14 -10 16 -15 8z"/>
<path d="M6180 4558 c0 -10 31 -10 48 0 8 6 2 9 -18 9 -16 0 -30 -4 -30 -9z"/>
<path d="M6309 4548 c-6 -12 -20 -31 -30 -42 -24 -25 -24 -36 0 -36 14 0 22
10 27 33 l8 32 5 -30 c5 -24 12 -31 34 -33 15 -2 27 0 27 3 0 8 -51 95 -56 95
-2 0 -9 -10 -15 -22z"/>
<path d="M6811 4493 c-1 -18 -2 -36 -3 -39 -2 -4 7 -13 19 -21 21 -14 21 -14
8 24 -22 67 -23 69 -24 36z"/>
<path d="M5670 4478 c0 -44 -17 -59 -26 -23 -3 14 -9 24 -11 21 -8 -8 20 -116
29 -110 4 3 6 10 3 15 -4 5 -1 9 5 9 7 0 10 6 7 14 -3 7 -2 31 3 52 6 24 5 43
0 48 -7 7 -10 -3 -10 -26z"/>
<path d="M5571 4488 c-1 -10 -7 -18 -15 -18 -15 0 -28 -47 -16 -55 4 -3 13 1
19 9 9 11 9 15 -1 19 -7 2 -11 7 -8 10 3 3 11 2 19 -2 11 -7 11 -12 0 -29 -12
-19 -11 -24 4 -39 13 -14 21 -15 35 -7 19 12 29 64 13 64 -6 0 -11 8 -12 18
-1 11 -4 8 -9 -8 l-7 -25 -7 30 c-12 45 -14 52 -15 33z m39 -88 c0 -5 -5 -10
-11 -10 -5 0 -7 5 -4 10 3 6 8 10 11 10 2 0 4 -4 4 -10z"/>
<path d="M6390 4460 c0 -9 39 -25 45 -18 2 2 -7 8 -21 15 -13 6 -24 7 -24 3z"/>
<path d="M6457 4439 c7 -7 15 -10 18 -7 3 3 -2 9 -12 12 -14 6 -15 5 -6 -5z"/>
<path d="M6734 4441 c4 -6 2 -11 -5 -11 -7 0 -10 -3 -6 -6 3 -4 -1 -24 -10
-46 -14 -34 -14 -41 -2 -49 18 -12 44 -7 44 8 0 6 3 15 7 18 4 4 2 17 -4 28
-9 17 -8 19 7 13 9 -3 28 -9 41 -12 13 -3 24 -10 24 -16 0 -5 -4 -7 -8 -4 -19
11 2 -56 21 -69 27 -19 14 -32 -16 -17 -34 17 -77 19 -77 3 0 -5 27 -18 60
-29 52 -18 60 -19 60 -5 0 9 6 13 13 10 10 -4 7 13 -9 58 -13 34 -20 65 -18
68 5 5 -49 38 -61 37 -3 0 -19 7 -36 16 -17 8 -28 11 -25 5z"/>
<path d="M6340 4419 c-30 -4 -81 -7 -113 -8 -53 -1 -58 -3 -52 -20 4 -14 0
-21 -15 -26 -11 -3 -20 -11 -20 -16 0 -6 -5 -7 -11 -4 -6 4 -10 1 -8 -6 4 -35
-2 -58 -18 -62 -10 -3 -5 -5 12 -6 23 -1 36 7 58 34 30 38 47 45 47 19 0 -11
5 -14 16 -10 9 3 18 6 20 6 2 0 4 9 4 20 0 27 28 25 40 -2 9 -23 9 -23 9 -1 1
12 7 24 14 26 6 3 -6 6 -27 6 -48 1 -44 6 10 14 38 6 40 5 39 -16 -3 -33 5
-47 25 -47 11 0 22 -4 25 -10 3 -5 -3 -10 -14 -10 -15 0 -21 -6 -21 -22 0 -20
1 -20 19 -4 10 9 28 19 40 21 49 9 61 17 61 38 1 22 1 22 15 3 13 -17 15 -18
15 -3 0 9 7 17 15 17 9 0 15 -9 15 -25 0 -48 33 -29 63 36 16 34 26 63 24 66
-6 6 -57 -26 -57 -36 0 -3 -31 -7 -70 -9 -64 -2 -86 7 -60 23 6 4 8 11 5 16
-6 9 -11 9 -105 -2z m188 -56 c-10 -2 -26 -2 -35 0 -10 3 -2 5 17 5 19 0 27
-2 18 -5z"/>
<path d="M5749 4400 c-9 -6 -14 -21 -13 -40 2 -25 0 -29 -12 -19 -18 15 -20
-6 -2 -25 19 -20 49 31 36 58 -7 12 -7 16 0 12 6 -3 13 -2 16 3 9 14 -7 21
-25 11z"/>
<path d="M6783 4350 c3 -39 17 -39 17 0 0 17 -4 30 -10 30 -5 0 -8 -13 -7 -30z"/>
<path d="M6033 4303 c-1 -22 3 -33 12 -33 15 0 30 35 21 49 -4 5 0 12 6 14 7
3 2 5 -12 4 -21 -1 -25 -6 -27 -34z"/>
<path d="M5860 4301 c0 -12 7 -24 15 -27 10 -4 12 -11 6 -21 -11 -20 -3 -50
15 -57 9 -3 16 4 20 21 5 17 3 28 -4 31 -7 2 -12 8 -12 14 0 5 -9 21 -20 35
-19 25 -20 25 -20 4z"/>
<path d="M5820 4260 c0 -22 5 -40 10 -40 6 0 10 17 8 40 -1 22 -6 40 -10 40
-4 0 -8 -18 -8 -40z"/>
<path d="M6244 4291 c4 -5 -3 -7 -14 -4 -12 3 -20 0 -20 -6 0 -7 -4 -10 -9 -7
-5 3 -13 0 -19 -7 -8 -9 0 -13 35 -15 55 -4 80 4 86 26 4 16 5 16 6 0 2 -26
41 -24 41 2 0 18 -7 20 -56 20 -30 0 -53 -4 -50 -9z"/>
<path d="M6670 4285 c0 -10 -11 -15 -32 -16 -227 -5 -299 -24 -270 -69 10 -16
9 -18 -3 -14 -8 4 -15 9 -15 13 0 4 -13 7 -30 6 -16 0 -30 -3 -30 -8 0 -4 -12
-8 -27 -8 -16 0 -56 -2 -90 -3 l-62 -3 20 29 20 28 -40 0 c-46 0 -73 -9 -65
-21 3 -5 0 -9 -5 -9 -6 0 -11 5 -11 12 0 8 -7 6 -17 -5 -13 -13 -19 -36 -20
-87 -1 -38 2 -72 8 -75 5 -4 7 -10 4 -15 -3 -5 0 -12 6 -15 7 -5 10 3 9 21 -5
64 0 94 14 94 10 0 16 -14 19 -42 l4 -43 1 48 c2 40 5 48 20 45 10 -2 17 -13
18 -28 1 -14 2 -29 4 -35 5 -21 -1 -31 -32 -49 l-32 -19 24 -9 c13 -5 37 -6
54 -2 l30 6 -25 14 c-21 12 -16 19 12 16 3 -1 5 26 3 58 -1 34 2 57 7 54 5 -3
9 -13 9 -23 0 -32 17 -38 87 -29 37 4 69 5 71 3 12 -12 -13 -19 -72 -23 -57
-4 -63 -6 -62 -25 1 -17 8 -21 41 -23 110 -7 168 -16 212 -34 38 -16 41 -6 4
12 -16 9 -84 88 -79 94 4 3 24 -11 46 -31 l40 -36 4 66 c3 67 -8 91 -15 33 -3
-29 -4 -28 -5 9 -2 47 -3 47 126 58 47 5 72 3 72 -3 0 -6 -31 -14 -70 -18
l-70 -7 1 -66 1 -66 9 59 c5 32 10 60 11 61 2 2 27 6 56 10 l52 7 0 -60 c0
-34 5 -64 11 -68 22 -13 -16 -24 -88 -24 -40 0 -73 -3 -73 -7 0 -21 72 -53
117 -53 27 0 55 -5 63 -11 12 -9 11 -10 -7 -6 -16 4 -23 -1 -28 -21 -3 -14 -1
-30 4 -35 19 -19 12 -27 -26 -28 -21 -1 -30 -3 -20 -6 9 -2 17 -13 17 -23 0
-10 6 -20 13 -23 9 -3 9 -7 -2 -20 -7 -10 -10 -17 -6 -17 4 0 3 -6 -3 -12 -23
-29 -13 -102 13 -92 8 3 22 1 32 -5 15 -9 13 -10 -14 -11 -17 0 -44 -5 -59
-10 -25 -10 -26 -12 -11 -27 13 -14 19 -14 32 -3 11 9 19 10 27 2 18 -18 2
-41 -26 -36 -20 3 -28 -2 -41 -26 -9 -17 -11 -30 -5 -30 5 0 10 6 10 13 0 8 4
7 10 -3 6 -10 10 -11 10 -3 0 13 75 12 119 -2 18 -6 22 -5 16 4 -6 10 -3 11
13 2 29 -15 37 -14 22 4 -7 9 -10 18 -6 22 3 3 6 2 6 -4 0 -13 31 -13 48 0 8
7 12 5 12 -7 0 -10 5 -14 11 -11 6 4 16 0 22 -8 12 -15 101 -30 175 -30 28 0
50 7 60 18 16 16 16 17 -5 10 -16 -4 -23 -2 -24 7 -3 26 3 42 19 54 14 10 14
12 2 11 -8 -1 -17 3 -18 8 -2 6 -8 18 -14 28 -8 15 -5 22 13 35 21 14 21 16 4
28 -15 11 -22 10 -46 -8 -34 -26 -41 -22 -30 18 7 24 10 26 16 11 7 -16 8 -16
20 -1 6 9 17 14 23 10 7 -4 12 -1 12 8 0 21 -18 30 -34 17 -8 -7 -41 -9 -89
-6 -46 4 -85 2 -97 -5 -18 -10 -19 -9 -8 14 6 14 15 23 21 19 6 -3 7 -1 4 5
-4 5 -16 8 -27 5 -12 -3 -20 0 -20 6 0 7 5 9 11 5 7 -4 10 -1 7 7 -3 8 -18 17
-34 20 l-29 5 35 16 35 16 -28 1 c-46 2 -26 25 26 31 38 5 47 3 47 -10 0 -13
1 -13 10 0 7 12 10 12 10 1 0 -7 6 -11 15 -7 9 3 15 0 15 -9 0 -10 -10 -15
-31 -15 -26 0 -29 -3 -20 -14 15 -18 71 -29 85 -17 7 6 26 8 44 6 18 -2 32 0
32 6 0 15 -43 28 -57 17 -7 -6 -20 -7 -29 -4 -13 5 -14 9 -4 21 7 8 16 13 20
10 4 -3 11 2 14 11 3 8 2 12 -3 9 -5 -3 -12 -1 -16 5 -3 5 -25 10 -49 10 -23
0 -47 5 -53 11 -13 13 -83 -8 -96 -28 -11 -17 -37 -16 -37 1 0 14 27 30 46 27
6 0 17 5 23 13 9 11 5 14 -24 18 -24 3 -34 0 -31 -7 7 -18 -26 -32 -59 -24
l-30 7 28 1 c15 0 27 6 27 12 0 5 -5 7 -12 3 -7 -4 -8 -3 -4 4 4 7 16 12 26
12 25 0 29 10 16 35 -7 13 -21 20 -38 19 -23 -1 -25 1 -15 17 9 14 20 16 64
12 l53 -6 0 37 c0 20 4 36 8 36 13 0 32 -42 29 -64 -1 -12 13 -26 46 -44 27
-15 43 -28 38 -30 -16 -5 -13 -28 6 -43 11 -9 14 -10 9 -2 -4 8 -2 11 6 8 7
-3 19 4 26 15 13 22 3 27 -16 8 -9 -9 -12 -8 -12 4 0 9 4 18 9 20 5 2 11 19
12 38 4 34 3 35 -29 32 -35 -2 -41 8 -17 28 12 10 13 15 4 20 -12 8 4 48 24
62 13 8 17 48 5 48 -4 0 -8 -5 -8 -11 0 -7 -9 -9 -22 -5 -13 4 -30 9 -38 11
-148 41 -150 42 -150 20 0 -8 -9 -15 -20 -15 -20 0 -28 26 -10 32 13 4 22 48
9 48 -5 0 -9 -7 -9 -15z m62 -119 c-2 -4 1 -12 7 -16 8 -5 3 -13 -15 -25 -24
-15 -26 -16 -21 -1 4 9 2 16 -4 16 -5 0 -8 12 -5 28 2 15 5 31 5 36 1 5 9 1
20 -10 10 -10 16 -23 13 -28z m-652 -6 c-14 -4 -34 -8 -45 -8 l-20 -1 20 9
c11 5 31 8 45 8 l25 0 -25 -8z m261 -31 c-9 -23 -10 -22 -10 11 -1 23 2 31 9
24 7 -7 7 -19 1 -35z m471 8 c3 -6 3 -17 0 -26 -6 -14 -7 -14 -10 1 -2 9 -12
20 -23 23 -10 4 -19 11 -19 16 0 12 42 1 52 -14z m-132 -18 c0 -5 -4 -9 -9 -9
-5 0 -17 -3 -26 -7 -15 -5 -16 -3 -6 15 11 20 41 21 41 1z m-557 -19 c3 -11 1
-20 -4 -20 -5 0 -9 9 -9 20 0 11 2 20 4 20 2 0 6 -9 9 -20z m632 10 c3 -5 -1
-10 -9 -10 -9 0 -16 5 -16 10 0 6 4 10 9 10 6 0 13 -4 16 -10z m-35 -30 c8 -5
12 -11 10 -14 -3 -2 -14 2 -24 10 -22 15 -10 19 14 4z m175 -63 c-20 -11 -29
-3 -21 19 5 13 9 14 22 3 14 -11 14 -13 -1 -22z m-215 -19 c0 -4 -7 -8 -15 -8
-8 0 -15 4 -15 8 0 5 7 9 15 9 8 0 15 -4 15 -9z m20 -207 c0 -16 6 -32 13 -34
8 -4 7 -6 -3 -6 -18 0 -53 45 -45 59 13 22 35 10 35 -19z m-60 -36 c0 -18 -5
-25 -20 -25 -15 0 -19 6 -18 25 2 17 8 25 20 25 13 0 18 -8 18 -25z m144 0
c-8 -20 -31 -26 -38 -10 -3 8 2 19 12 24 20 12 33 5 26 -14z m101 -31 c9 3 13
2 10 -4 -3 -6 -14 -10 -23 -10 -9 -1 -28 -8 -42 -16 -25 -15 -24 -15 15 -9 22
4 46 7 53 7 6 1 12 5 12 10 0 5 6 3 14 -4 17 -16 3 -38 -25 -38 -10 0 -20 -3
-22 -7 -3 -5 -29 -8 -58 -8 -50 0 -53 1 -53 25 0 18 5 26 23 28 14 2 21 9 17
17 -6 16 33 25 51 12 7 -5 20 -7 28 -3z m-168 -54 c2 -30 -1 -40 -12 -40 -17
0 -17 60 0 72 6 4 10 8 10 8 0 0 1 -18 2 -40z m268 -20 c-3 -5 -13 -10 -21
-10 -8 0 -14 5 -14 10 0 6 9 10 21 10 11 0 17 -4 14 -10z m-180 -30 c11 4 29
4 40 0 11 -4 24 -8 30 -8 24 -1 13 -22 -17 -30 -26 -7 -39 -4 -65 12 -18 12
-33 25 -33 30 0 5 6 4 13 -2 6 -5 21 -6 32 -2z m170 -20 c-8 -9 -15 -22 -15
-28 0 -7 -4 -12 -9 -12 -5 0 -7 10 -3 22 4 18 2 20 -16 16 -12 -4 -22 -3 -22
1 0 11 44 27 63 23 16 -4 16 -6 2 -22z m-335 5 c-7 -9 -15 -13 -19 -10 -3 3 1
10 9 15 21 14 24 12 10 -5z m65 5 c3 -5 -1 -10 -10 -10 -9 0 -13 5 -10 10 3 6
8 10 10 10 2 0 7 -4 10 -10z m315 -41 c0 -16 -20 -20 -26 -5 -3 9 -11 13 -17
9 -5 -3 -7 -1 -4 5 8 11 47 4 47 -9z"/>
<path d="M6965 4281 c4 -12 0 -21 -11 -25 -14 -5 -15 -15 -9 -59 4 -28 8 -60
9 -69 1 -35 14 -17 18 25 3 27 0 45 -8 50 -16 9 -7 38 10 31 8 -3 11 6 8 31
-2 19 -8 35 -14 35 -5 0 -7 -8 -3 -19z"/>
<path d="M6557 4143 c-11 -19 -18 -93 -9 -93 6 0 12 23 14 50 3 51 3 56 -5 43z"/>
<path d="M6985 4040 c-4 -12 -3 -26 3 -32 12 -12 23 25 12 42 -6 9 -10 6 -15
-10z"/>
<path d="M6746 4015 c4 -8 9 -15 13 -15 4 0 8 7 8 15 0 8 -6 15 -13 15 -8 0
-11 -6 -8 -15z"/>
<path d="M5902 4004 c-13 -6 -20 -14 -15 -16 12 -8 67 -22 76 -20 4 1 7 -2 7
-8 0 -6 -52 -8 -135 -5 -94 4 -146 1 -172 -8 -21 -7 -46 -11 -56 -9 -18 4 -18
5 -1 23 9 10 21 16 25 13 5 -3 9 -1 9 4 0 13 -26 22 -36 13 -5 -4 -27 -13 -50
-19 -22 -6 -51 -23 -63 -36 l-23 -25 33 -21 c25 -15 44 -19 71 -15 42 6 97
-13 76 -27 -9 -5 -5 -8 12 -9 14 0 19 -3 13 -6 -30 -12 -9 -23 45 -24 31 0 66
-5 77 -10 28 -13 -143 -2 -183 12 -18 6 -32 17 -32 24 0 14 -49 27 -65 17 -5
-4 -16 -7 -23 -8 -22 -4 -23 -9 -11 -60 7 -27 13 -77 15 -111 1 -34 5 -66 8
-72 4 -5 2 -12 -4 -16 -14 -9 -12 -21 5 -39 14 -14 14 -18 0 -40 -23 -35 -27
-181 -5 -201 11 -10 15 -27 13 -52 -5 -54 -8 -72 -15 -79 -4 -3 -3 -16 2 -29
5 -13 7 -25 4 -28 -2 -2 2 -10 11 -17 8 -7 15 -20 15 -30 0 -27 17 -35 108
-54 125 -27 152 -36 152 -51 0 -13 -22 -12 -60 3 -8 3 -17 6 -20 7 -3 1 -12 4
-20 7 -36 13 -94 27 -98 23 -2 -2 50 -39 115 -83 82 -55 127 -79 144 -77 35 4
117 44 132 65 7 10 28 24 47 33 19 8 47 28 62 45 15 18 39 34 53 38 14 3 25
10 25 15 0 5 6 9 13 9 8 0 19 11 25 25 15 33 16 32 -13 39 -29 7 -33 22 -7 30
10 4 19 13 19 21 0 8 -5 11 -10 8 -14 -9 -97 -11 -97 -3 0 4 14 11 31 16 17 5
29 13 27 17 -2 5 5 13 15 18 9 6 17 14 17 19 0 6 -8 10 -17 10 -15 0 -16 -2
-3 -10 12 -8 11 -10 -7 -10 -32 0 -36 -1 -54 -11 -11 -6 -21 -4 -28 5 -10 12
-6 15 18 21 34 7 33 31 -2 38 -20 3 -19 5 8 17 17 7 38 15 49 17 10 2 25 7 33
12 12 6 10 10 -12 15 -15 4 -32 3 -38 -2 -7 -4 -27 -9 -44 -11 -25 -2 -33 1
-33 14 0 11 5 15 15 12 20 -8 28 8 10 23 -23 19 -19 26 30 45 43 16 56 38 24
41 -8 1 -21 2 -29 3 -8 1 1 11 20 22 l35 20 -40 -5 c-39 -5 -38 -4 10 11 62
19 61 18 40 39 -13 13 -19 14 -25 5 -5 -9 -9 -10 -14 -2 -5 8 -13 8 -26 1 -13
-7 -21 -7 -25 0 -6 9 -1 11 38 14 29 2 43 33 22 48 -6 5 -5 8 3 8 7 0 11 4 7
10 -3 5 3 18 14 29 23 23 18 31 -16 25 -15 -3 -22 -1 -18 6 3 5 13 10 20 10
20 0 42 43 25 48 -6 2 7 15 29 29 23 13 39 29 35 34 -3 5 -10 6 -16 3 -19 -12
4 20 29 40 13 10 22 23 20 29 -2 6 23 24 55 39 36 17 57 32 53 39 -4 6 -18 8
-31 5 -19 -5 -22 -3 -17 10 7 18 -12 34 -41 34 -12 0 -16 -5 -13 -14 4 -10 -7
-21 -33 -32 -21 -10 -37 -21 -34 -26 3 -4 1 -8 -5 -8 -5 0 -27 -16 -48 -36
-21 -20 -51 -41 -66 -46 -17 -6 -26 -16 -23 -23 6 -17 -15 -25 -62 -25 -36 0
-36 0 -14 16 12 8 26 13 30 10 5 -3 9 1 9 9 0 8 -4 15 -9 15 -5 0 -6 5 -3 10
3 6 1 10 -5 10 -6 0 -8 5 -5 10 5 8 11 8 20 0 10 -8 16 -8 22 2 4 8 30 27 57
42 l49 29 -32 13 c-28 12 -102 26 -186 37 -11 2 -31 -2 -43 -9z m-108 -63 c3
-5 -3 -11 -14 -14 -13 -3 -20 0 -20 9 0 15 26 19 34 5z m74 -51 c3 -7 -1 -10
-9 -7 -8 2 -13 10 -11 16 1 6 -5 11 -13 11 -8 0 -15 5 -15 11 0 15 42 -12 48
-31z m-68 10 c-8 -5 -19 -10 -25 -10 -5 0 -3 5 5 10 8 5 20 10 25 10 6 0 3 -5
-5 -10z m-73 -36 c-3 -3 -12 -4 -19 -1 -8 3 -5 6 6 6 11 1 17 -2 13 -5z m146
-16 c31 -15 35 -25 9 -23 -23 1 -72 35 -51 35 8 0 27 -6 42 -12z m307 -38 c-8
-5 -24 -9 -35 -9 -16 1 -16 2 5 9 35 11 48 11 30 0z"/>
<path d="M5708 4003 c-31 -5 -61 -33 -34 -33 9 0 16 5 16 10 0 6 29 10 68 10
47 0 63 3 52 10 -15 10 -51 11 -102 3z"/>
<path d="M5830 3980 c-13 -8 -12 -10 3 -10 9 0 17 5 17 10 0 12 -1 12 -20 0z"/>
<path d="M6980 3916 c0 -2 8 -10 18 -17 15 -13 16 -12 3 4 -13 16 -21 21 -21
13z"/>
<path d="M6083 3893 c-13 -2 -23 -9 -23 -14 0 -15 36 -10 50 6 7 8 9 14 4 14
-5 -1 -19 -4 -31 -6z"/>
<path d="M6580 3890 c0 -5 5 -10 11 -10 5 0 7 5 4 10 -3 6 -8 10 -11 10 -2 0
-4 -4 -4 -10z"/>
<path d="M6270 3850 c-15 -28 -4 -39 17 -17 13 12 14 20 6 28 -8 8 -14 5 -23
-11z"/>
<path d="M6313 3813 c-18 -7 -16 -20 2 -20 8 0 15 6 15 14 0 7 -1 13 -2 12 -2
0 -9 -3 -15 -6z"/>
<path d="M6853 3795 c17 -16 66 -23 85 -11 7 4 12 3 12 -3 0 -12 27 -8 41 6 6
6 18 9 25 6 8 -3 14 0 14 6 0 14 -84 15 -110 1 -13 -7 -21 -7 -25 0 -3 5 -17
10 -31 10 -22 0 -24 -2 -11 -15z"/>
<path d="M6380 3785 c20 -24 7 -133 -24 -200 -14 -32 -44 -84 -66 -117 -32
-46 -39 -64 -34 -86 15 -66 15 -66 36 -31 11 19 24 36 28 39 15 10 66 105 89
165 13 33 27 67 31 75 38 77 8 170 -56 170 -14 0 -14 -3 -4 -15z"/>
<path d="M6210 3349 c0 -5 5 -7 10 -4 6 3 10 8 10 11 0 2 -4 4 -10 4 -5 0 -10
-5 -10 -11z"/>
<path d="M6150 3270 c-8 -5 -10 -10 -5 -10 6 0 17 5 25 10 8 5 11 10 5 10 -5
0 -17 -5 -25 -10z"/>
<path d="M5506 3007 c22 -23 55 -55 74 -70 50 -40 201 -189 197 -194 -3 -2
-40 29 -83 69 -123 114 -183 160 -217 168 -31 7 -32 6 -32 -27 0 -39 20 -56
48 -41 14 7 24 5 40 -10 12 -10 37 -25 56 -32 31 -13 32 -14 12 -21 -11 -5
-21 -16 -21 -25 0 -9 -6 -14 -12 -11 -7 3 -22 8 -33 12 l-20 7 20 -17 c20 -17
20 -17 -5 -10 -14 4 -35 13 -47 21 -18 11 -22 11 -26 -1 -6 -15 112 -98 148
-102 12 -2 30 6 40 17 17 18 17 24 6 43 -8 12 20 -11 63 -50 42 -40 83 -73 93
-73 9 0 31 12 50 26 30 23 34 30 31 67 -3 48 -27 60 -59 31 -17 -16 -19 -16
-19 -1 0 10 -5 17 -12 17 -6 0 -8 3 -5 6 4 4 13 1 22 -6 8 -7 15 -10 15 -6 0
8 -81 66 -92 66 -5 0 -6 -6 -2 -12 4 -7 -2 -4 -14 6 -26 23 -29 34 -4 15 14
-11 13 -10 -2 9 -20 23 -32 30 -21 12 16 -25 -15 -6 -55 35 -24 24 -46 42 -50
40 -4 -2 -31 16 -59 40 -29 25 -55 45 -58 45 -3 0 12 -19 33 -43z m112 -201
c12 -3 12 -4 -3 -3 -11 1 -20 9 -21 17 0 8 1 10 3 3 2 -6 12 -14 21 -17z m-38
-31 c0 -8 -2 -15 -4 -15 -2 0 -6 7 -10 15 -3 8 -1 15 4 15 6 0 10 -7 10 -15z
m223 -70 c-3 -9 -8 -14 -10 -11 -3 3 -2 9 2 15 9 16 15 13 8 -4z"/>
<path d="M6053 2903 c-16 -6 -17 -28 -2 -54 7 -14 14 -17 22 -11 26 20 57 21
67 1 10 -17 8 -18 -21 -12 -28 5 -30 4 -21 -13 13 -27 4 -49 -14 -33 -8 6 -14
15 -14 20 0 4 -12 21 -26 36 l-27 28 17 -32 c9 -18 16 -46 16 -63 0 -16 4 -30
9 -30 5 0 17 -3 27 -7 13 -5 15 -3 9 8 -8 12 -6 12 8 0 18 -14 22 -7 18 27 -1
8 14 -3 34 -23 40 -42 59 -37 63 16 3 41 6 44 23 22 8 -9 9 -14 3 -10 -7 4
-14 -2 -17 -13 -6 -24 4 -25 43 -5 35 18 39 30 9 22 -17 -4 -19 -3 -10 6 13
13 15 56 3 74 -4 7 -19 14 -32 16 -13 2 -26 9 -28 15 -7 23 -22 11 -16 -13 5
-22 3 -25 -18 -25 -33 0 -41 10 -20 27 15 12 14 12 -9 4 -21 -8 -31 -6 -48 10
-11 11 -21 16 -21 10 0 -5 -7 -12 -16 -15 -14 -5 -15 -4 -4 9 13 16 13 16 -7
8z m217 -79 c0 -8 -4 -14 -10 -14 -5 0 -10 9 -10 21 0 11 5 17 10 14 6 -3 10
-13 10 -21z m-73 -49 c0 -8 -6 -15 -13 -15 -18 0 -27 17 -12 23 21 9 25 8 25
-8z"/>
<path d="M5990 2882 c0 -15 4 -20 16 -15 9 3 12 9 7 12 -4 3 -11 10 -15 15 -5
5 -8 0 -8 -12z"/>
<path d="M5981 2841 c-1 -9 -8 -11 -22 -8 -20 5 -21 3 -16 -30 4 -19 3 -33 0
-29 -3 3 -13 -3 -21 -15 -18 -26 -16 -28 41 -35 39 -6 47 -4 47 9 0 9 -8 21
-17 26 -17 10 -17 10 -1 11 10 0 22 9 28 19 14 27 13 34 -5 27 -10 -4 -19 2
-25 17 -5 12 -9 16 -9 8z"/>
<path d="M6810 2784 c0 -14 4 -23 9 -20 5 3 7 15 4 26 -7 28 -13 25 -13 -6z"/>
<path d="M6906 2784 c3 -18 1 -23 -7 -18 -8 5 -9 3 -4 -6 6 -10 11 -9 22 6 8
10 20 18 26 16 7 -2 8 0 4 5 -5 4 -12 8 -15 8 -4 0 -12 4 -19 8 -8 5 -10 0 -7
-19z"/>
<path d="M6981 2801 c-9 -6 -10 -11 -2 -15 6 -4 11 -1 12 6 0 7 4 4 9 -7 7
-16 9 -17 9 -3 1 21 -11 29 -28 19z"/>
<path d="M6763 2783 c-3 -10 -7 -20 -9 -23 -1 -3 6 -6 17 -6 10 0 19 4 19 8 0
4 -4 8 -10 8 -5 0 -7 7 -4 15 4 8 3 15 0 15 -4 0 -9 -8 -13 -17z"/>
<path d="M3632 5613 c-6 -2 -9 -10 -6 -15 4 -6 3 -8 -3 -5 -11 7 -53 -19 -53
-33 0 -15 42 -33 73 -32 38 1 67 28 67 64 0 25 -3 28 -32 27 -18 0 -39 -3 -46
-6z"/>
<path d="M6770 5628 c-22 -36 -25 -48 -11 -48 16 0 49 34 56 58 10 35 -22 28
-45 -10z"/>
<path d="M4269 5419 c-23 -23 -58 -95 -59 -121 0 -9 5 -20 11 -23 13 -9 60 35
52 48 -3 6 -1 7 6 3 14 -9 55 78 47 100 -8 20 -33 17 -57 -7z"/>
<path d="M6241 5361 c-25 -25 -47 -67 -56 -108 -6 -29 -4 -33 13 -33 26 0 47
21 73 72 33 65 13 112 -30 69z"/>
<path d="M4338 5083 c-35 -38 -58 -86 -58 -123 0 -67 70 -17 105 74 28 74 2
101 -47 49z"/>
<path d="M6057 4977 c-11 -29 -9 -43 4 -30 6 6 9 19 7 29 -3 18 -4 18 -11 1z"/>
<path d="M4171 4714 c0 -11 3 -14 6 -6 3 7 2 16 -1 19 -3 4 -6 -2 -5 -13z"/>
<path d="M4300 4619 c0 -5 5 -7 10 -4 6 3 10 8 10 11 0 2 -4 4 -10 4 -5 0 -10
-5 -10 -11z"/>
<path d="M4370 4619 c0 -5 5 -7 10 -4 6 3 10 8 10 11 0 2 -4 4 -10 4 -5 0 -10
-5 -10 -11z"/>
<path d="M4670 4621 c0 -5 -3 -16 -6 -25 -3 -9 -2 -16 4 -16 13 0 23 38 11 46
-5 3 -9 1 -9 -5z"/>
<path d="M4038 4624 c-5 -4 -8 -16 -8 -28 0 -14 3 -17 11 -9 6 6 9 19 7 28 -1
9 -6 13 -10 9z"/>
<path d="M4496 4612 c-4 -13 -5 -26 -2 -29 10 -11 18 4 14 29 l-4 23 -8 -23z"/>
<path d="M4596 4614 c-8 -22 -7 -34 3 -34 12 0 21 39 11 45 -4 3 -11 -2 -14
-11z"/>
<path d="M4826 4615 c-3 -8 -1 -15 4 -15 6 0 10 7 10 15 0 8 -2 15 -4 15 -2 0
-6 -7 -10 -15z"/>
<path d="M4521 9941 c-1 -27 2 -32 11 -23 8 8 8 17 0 34 -10 22 -11 21 -11
-11z"/>
<path d="M4556 9943 c-4 -9 -2 -21 4 -27 7 -7 10 -2 10 17 0 31 -5 34 -14 10z"/>
<path d="M4592 9940 c0 -14 2 -19 5 -12 2 6 2 18 0 25 -3 6 -5 1 -5 -13z"/>
<path d="M4082 9930 c0 -14 2 -19 5 -12 2 6 2 18 0 25 -3 6 -5 1 -5 -13z"/>
<path d="M6394 9684 c7 -39 16 -42 16 -6 0 18 -5 32 -10 32 -6 0 -8 -12 -6
-26z"/>
<path d="M6427 9689 c-4 -13 -2 -28 3 -33 7 -7 10 -6 10 3 0 7 4 10 9 6 15 -9
25 15 12 28 -9 9 -11 8 -6 -5 4 -10 4 -18 1 -18 -4 0 -10 10 -15 22 -8 21 -8
21 -14 -3z"/>
<path d="M6482 9680 c0 -14 2 -19 5 -12 2 6 2 18 0 25 -3 6 -5 1 -5 -13z"/>
<path d="M6501 9684 c0 -11 3 -14 6 -6 3 7 2 16 -1 19 -3 4 -6 -2 -5 -13z"/>
<path d="M5962 9670 c0 -14 2 -19 5 -12 2 6 2 18 0 25 -3 6 -5 1 -5 -13z"/>
<path d="M4632 9635 c0 -16 2 -22 5 -12 2 9 2 23 0 30 -3 6 -5 -1 -5 -18z"/>
<path d="M6565 9650 c3 -5 8 -10 11 -10 2 0 4 5 4 10 0 6 -5 10 -11 10 -5 0
-7 -4 -4 -10z"/>
<path d="M3991 9624 c0 -11 3 -14 6 -6 3 7 2 16 -1 19 -3 4 -6 -2 -5 -13z"/>
<path d="M5880 9621 c0 -11 5 -23 10 -26 6 -3 10 3 10 14 0 11 -4 23 -10 26
-5 3 -10 -3 -10 -14z"/>
<path d="M5895 9560 c-3 -5 3 -10 15 -10 12 0 18 5 15 10 -3 6 -10 10 -15 10
-5 0 -12 -4 -15 -10z"/>
<path d="M5870 9204 c0 -31 2 -35 15 -24 8 7 15 23 15 36 0 15 -6 24 -15 24
-11 0 -15 -11 -15 -36z"/>
<path d="M5891 9034 c0 -11 3 -14 6 -6 3 7 2 16 -1 19 -3 4 -6 -2 -5 -13z"/>
<path d="M5307 7014 c-26 -35 -17 -38 11 -3 13 16 20 29 15 29 -4 0 -16 -12
-26 -26z"/>
<path d="M3225 6627 c-4 -23 -8 -537 -9 -1142 -1 -786 0 -913 4 -445 3 360 6
656 8 657 1 1 18 7 37 13 l35 12 0 444 0 444 -25 10 c-14 5 -25 16 -25 24 0
35 -19 22 -25 -17z"/>
<path d="M3290 6656 c0 -8 -8 -16 -17 -18 -15 -3 -14 -5 5 -10 18 -5 22 -2 22
18 0 13 -2 24 -5 24 -3 0 -5 -6 -5 -14z"/>
<path d="M3820 4490 c0 -5 5 -10 10 -10 6 0 10 5 10 10 0 6 -4 10 -10 10 -5 0
-10 -4 -10 -10z"/>
<path d="M3815 4460 c4 -6 11 -8 16 -5 14 9 11 15 -7 15 -8 0 -12 -5 -9 -10z"/>
<path d="M3212 4340 c0 -14 2 -19 5 -12 2 6 2 18 0 25 -3 6 -5 1 -5 -13z"/>
<path d="M3479 4325 c-9 -24 -12 -50 -8 -65 7 -23 7 -23 8 7 1 17 6 33 12 35
6 2 9 17 7 33 l-3 30 -16 -40z"/>
<path d="M4236 4321 c-6 -10 22 -37 29 -29 8 7 -5 38 -15 38 -5 0 -11 -4 -14
-9z"/>
<path d="M4125 4310 c-3 -6 -3 -20 0 -31 4 -12 7 -36 7 -55 0 -19 4 -37 9 -40
5 -3 9 1 9 8 0 8 10 22 21 32 18 15 19 20 8 27 -11 7 -11 9 -1 9 10 0 9 8 -5
30 -18 30 -37 38 -48 20z"/>
<path d="M4067 4303 c-10 -9 -8 -33 2 -33 5 0 11 9 14 20 5 20 -3 26 -16 13z"/>
<path d="M4320 4272 c-13 -14 -12 -15 4 -9 14 6 17 2 14 -20 -2 -17 2 -28 9
-28 7 0 18 -6 25 -12 25 -26 28 -12 4 20 -15 19 -26 39 -26 45 0 19 -14 21
-30 4z"/>
<path d="M4968 4283 c7 -3 16 -2 19 1 4 3 -2 6 -13 5 -11 0 -14 -3 -6 -6z"/>
<path d="M4044 4259 c-2 -4 0 -10 6 -14 5 -3 10 -3 10 1 0 4 11 -3 25 -16 25
-24 30 -20 16 14 -7 19 -47 30 -57 15z"/>
<path d="M4807 4263 c-4 -3 -7 -24 -7 -46 0 -22 3 -37 7 -33 6 5 12 86 7 86 0
0 -4 -3 -7 -7z"/>
<path d="M5003 4218 c4 -29 13 -48 27 -57 49 -33 163 -231 163 -283 l0 -26 17
21 c10 12 21 38 25 57 4 19 11 40 16 46 5 6 4 27 -2 49 -6 21 -9 54 -6 72 3
18 2 33 -3 33 -4 0 -10 16 -12 35 -2 19 0 35 5 35 4 0 6 4 2 10 -7 11 -35 2
-35 -12 0 -5 -7 -16 -16 -25 -14 -14 -16 -14 -21 6 -4 15 -9 19 -18 11 -11 -9
-20 -6 -107 42 -15 8 -25 18 -21 21 3 4 0 7 -7 7 -9 0 -11 -11 -7 -42z"/>
<path d="M3446 4228 c-4 -9 -5 -22 -1 -28 3 -5 2 -10 -3 -10 -6 0 -12 -18 -14
-40 -4 -40 2 -46 40 -41 6 1 12 -3 12 -9 0 -7 7 -6 19 2 26 16 51 -5 51 -42 0
-28 25 -58 38 -46 4 4 -1 13 -11 20 -21 16 -22 43 -1 85 15 31 39 35 27 5 -3
-9 0 -20 7 -24 7 -4 9 -13 5 -19 -5 -9 -10 -9 -21 0 -17 14 -19 -2 -2 -19 16
-16 28 -15 28 3 0 8 9 23 20 32 11 10 20 23 20 30 0 7 5 13 11 13 6 0 8 -9 4
-20 -4 -14 -2 -20 8 -20 11 0 13 -7 10 -21 -6 -21 -7 -21 -19 -4 -12 17 -14
16 -24 -9 -5 -15 -10 -34 -10 -42 0 -17 26 -19 34 -1 3 6 5 3 3 -8 -3 -30 -47
-33 -54 -4 l-6 23 -8 -22 c-6 -16 -17 -22 -39 -22 -16 0 -30 5 -30 10 0 6 -8
5 -20 -2 -18 -11 -23 -10 -39 11 l-18 24 -6 -23 c-3 -13 -11 -21 -19 -18 -10
4 -12 -4 -10 -33 l4 -39 62 0 c33 -1 127 -3 207 -6 84 -3 149 -2 152 3 3 5
-10 31 -29 58 -18 27 -34 54 -34 61 0 7 -4 14 -9 16 -6 2 10 29 34 62 25 32
42 63 39 67 -3 5 -84 9 -180 9 -167 0 -174 1 -174 20 0 27 -17 25 -26 -2 -8
-22 -8 -21 -14 7 -6 24 -8 27 -14 13z"/>
<path d="M4969 4225 c-1 -11 -1 -25 0 -32 1 -6 -9 -19 -21 -27 -15 -11 -17
-16 -8 -16 9 0 11 -3 5 -8 -6 -4 -16 -19 -22 -34 -10 -23 -10 -28 1 -28 8 0
20 -2 28 -5 9 -4 13 6 13 36 0 27 5 44 14 47 11 4 12 -2 7 -24 -5 -21 -4 -25
4 -14 11 16 4 85 -11 110 -7 12 -9 11 -10 -5z"/>
<path d="M4175 4209 c-11 -4 -14 -8 -7 -8 9 -1 11 -8 7 -21 -4 -12 -2 -20 5
-20 7 0 10 -8 7 -20 -3 -13 0 -20 9 -20 9 0 14 11 14 34 0 24 5 36 18 39 13 4
12 5 -5 6 -12 0 -23 5 -25 10 -1 4 -12 5 -23 0z m22 -31 c-3 -8 -6 -5 -6 6 -1
11 2 17 5 13 3 -3 4 -12 1 -19z"/>
<path d="M4270 4201 c0 -19 5 -22 33 -19 31 3 41 19 15 26 -9 2 -8 0 2 -7 12
-9 13 -11 1 -11 -8 0 -23 7 -33 17 -17 15 -18 15 -18 -6z"/>
<path d="M4421 4181 c-7 -17 -20 -36 -28 -42 -8 -7 -19 -21 -24 -31 -8 -16 -6
-18 21 -18 27 0 30 3 30 30 0 38 18 40 22 3 2 -23 8 -29 35 -31 17 -2 37 -10
43 -18 7 -8 17 -14 22 -14 6 0 -8 19 -31 41 -22 23 -41 46 -41 53 0 6 -9 22
-19 35 l-18 23 -12 -31z"/>
<path d="M5001 4102 c-1 -7 -6 -10 -12 -6 -6 3 -3 -8 5 -25 9 -17 21 -31 27
-31 6 0 7 5 4 11 -4 6 -11 23 -15 37 -5 15 -9 21 -9 14z"/>
<path d="M3508 4077 c-12 -29 -10 -73 3 -60 6 6 9 26 7 44 -2 26 -5 30 -10 16z"/>
<path d="M3471 4064 c0 -11 3 -14 6 -6 3 7 2 16 -1 19 -3 4 -6 -2 -5 -13z"/>
<path d="M4600 4050 c0 -5 4 -10 9 -10 6 0 13 5 16 10 3 6 -1 10 -9 10 -9 0
-16 -4 -16 -10z"/>
<path d="M4910 4051 c0 -6 0 -14 1 -17 0 -4 -3 -10 -8 -13 -11 -8 -33 -58 -33
-75 0 -15 35 -27 54 -20 7 3 12 22 12 45 -1 30 3 39 14 37 8 -2 15 -12 16 -23
2 -54 5 -65 14 -65 6 0 10 17 10 37 0 20 3 33 7 29 4 -4 6 -24 4 -45 -2 -32 2
-39 23 -49 14 -6 26 -16 26 -22 0 -14 -12 -13 -35 3 -28 19 -60 26 -76 16 -19
-12 -4 -23 64 -48 45 -16 57 -18 57 -7 0 8 5 16 11 18 7 2 2 25 -12 63 -12 32
-22 67 -23 77 -1 10 -5 19 -11 19 -5 0 -17 6 -25 13 -8 7 -24 16 -35 18 -11 3
-28 9 -37 13 -11 4 -18 3 -18 -4z"/>
<path d="M4744 4021 c-25 -23 -38 -28 -67 -26 -40 4 -51 -11 -14 -18 19 -4 18
-4 -5 -6 -16 0 -28 4 -28 9 0 6 -3 9 -7 9 -5 -1 -20 -1 -35 0 -32 1 -36 17
-10 38 15 12 3 13 -88 7 -58 -4 -116 -8 -130 -9 -14 -2 -45 -3 -69 -4 -40 -1
-43 -2 -27 -14 18 -13 17 -15 -11 -35 -17 -12 -33 -19 -37 -15 -3 3 -6 2 -6
-3 -1 -5 -4 -27 -9 -50 -7 -39 -7 -40 15 -36 13 2 37 22 55 43 36 44 44 47 52
20 6 -26 47 -17 47 10 0 27 31 24 38 -3 6 -23 6 -23 12 2 8 35 40 40 40 6 0
-21 5 -25 33 -28 25 -2 31 -7 29 -22 -3 -16 -1 -18 11 -8 7 6 16 9 19 7 11
-11 58 19 58 37 0 23 27 24 33 1 4 -14 5 -12 6 5 2 33 28 27 35 -8 4 -21 11
-30 26 -30 18 0 24 11 23 47 -1 7 3 11 7 8 10 -6 35 32 44 68 8 35 -1 34 -40
-2z m-274 -30 c0 -5 -27 -11 -60 -13 -65 -3 -69 8 -5 15 22 2 46 4 53 5 6 1
12 -2 12 -7z"/>
<path d="M4150 3949 c-19 -4 -37 -6 -40 -4 -3 2 -6 -15 -7 -36 0 -26 3 -39 12
-39 18 0 37 26 33 46 -2 13 5 20 27 24 17 3 26 8 20 11 -5 3 -26 2 -45 -2z"/>
<path d="M3905 3908 c-3 -8 -1 -27 4 -41 6 -15 7 -27 2 -27 -14 0 -1 -38 14
-44 16 -6 30 28 26 59 -2 11 -11 30 -22 43 -14 19 -20 21 -24 10z"/>
<path d="M4171 3904 c0 -11 3 -14 6 -6 3 7 2 16 -1 19 -3 4 -6 -2 -5 -13z"/>
<path d="M4840 3890 c-5 -23 -9 -25 -52 -24 -27 0 -48 -2 -48 -5 0 -3 -24 -7
-53 -8 -125 -4 -176 -10 -191 -22 -19 -16 -21 -47 -3 -55 6 -3 1 -3 -13 1 -30
8 -39 8 -112 0 -43 -5 -58 -3 -58 6 0 8 -3 8 -8 2 -4 -6 -31 -12 -60 -13 -56
-2 -55 -3 -15 42 19 22 -81 21 -103 -1 -11 -11 -19 -14 -21 -7 -5 15 -50 5
-57 -12 -3 -8 -2 -14 2 -14 4 0 8 -32 9 -71 2 -40 8 -77 13 -84 8 -9 7 -14 -2
-17 -8 -3 -6 -7 6 -11 14 -6 17 -2 16 21 -5 68 0 102 15 102 8 0 15 5 15 11 0
6 -7 9 -15 5 -8 -3 -15 -1 -15 4 0 6 21 9 48 9 29 -1 36 -4 20 -6 -16 -2 -28
-10 -29 -16 0 -7 -2 -20 -4 -29 -2 -10 1 -18 6 -18 5 0 9 11 9 25 0 16 6 25
15 25 15 0 17 -6 18 -47 0 -38 15 -26 20 15 3 36 4 35 5 -8 2 -53 -3 -62 -45
-84 -49 -25 -41 -38 22 -34 57 3 70 12 35 23 -11 4 -18 11 -14 16 3 6 13 8 21
4 14 -5 14 -3 2 11 -11 14 -11 18 -1 22 9 3 10 8 2 17 -11 13 -2 78 10 70 4
-3 10 -19 14 -36 l6 -31 90 8 c61 4 90 3 90 -4 0 -6 -34 -14 -79 -18 -58 -5
-81 -11 -86 -22 -9 -25 5 -30 98 -34 l87 -4 2 90 c1 52 3 71 5 44 3 -30 9 -48
17 -48 7 0 31 -16 54 -36 37 -31 42 -33 42 -16 0 11 -6 23 -12 25 -10 4 -10 6
0 6 8 1 12 17 12 45 0 38 3 45 23 49 19 4 19 4 -5 6 -25 1 -27 -2 -30 -46 l-3
-48 -5 44 c-3 23 -1 49 5 56 11 15 199 40 218 28 17 -10 -21 -21 -78 -22 -27
-1 -55 -5 -61 -9 -12 -7 -24 -152 -13 -152 3 0 9 29 12 65 4 36 9 70 12 75 4
6 33 10 66 10 l59 0 0 -66 c0 -56 3 -69 23 -86 12 -11 15 -16 7 -12 -18 10
-180 5 -198 -5 -9 -5 -1 -15 27 -34 35 -23 51 -27 140 -29 113 -3 129 4 108
45 -8 16 -17 23 -23 17 -14 -14 -38 5 -30 25 4 11 12 15 24 10 21 -8 18 -8 65
-6 37 1 54 21 17 21 -11 0 -20 4 -20 8 0 5 10 8 23 8 18 -1 21 4 19 23 -3 19
0 23 15 17 14 -5 13 -2 -4 13 -29 24 -29 28 2 33 15 3 22 1 18 -5 -4 -7 1 -8
12 -3 13 5 15 3 8 -6 -5 -7 -11 -38 -12 -68 -2 -45 2 -59 18 -74 18 -16 64
-16 48 1 -4 3 -2 14 4 24 6 12 6 19 0 19 -5 0 -7 9 -4 20 3 11 8 18 12 16 4
-3 13 -1 21 5 13 7 12 9 -2 9 -11 0 -18 8 -18 20 0 15 7 20 28 21 l27 1 -25 7
c-25 7 -25 7 -4 19 13 7 22 21 22 37 0 20 -3 23 -14 14 -12 -10 -26 -9 -79 7
-5 2 -30 9 -55 15 -25 7 -47 15 -50 18 -3 3 -15 7 -27 8 -17 2 -23 -2 -23 -17
0 -13 -7 -20 -19 -20 -28 0 -37 21 -17 36 12 8 16 22 14 41 -4 28 -4 28 -8 3z
m64 -144 c-4 -11 0 -16 11 -16 14 0 11 -5 -11 -22 -17 -14 -40 -22 -61 -21
-18 1 -33 -3 -33 -8 0 -5 -4 -9 -10 -9 -11 0 -1 32 14 42 6 4 14 2 18 -5 6 -9
8 -8 8 2 0 10 3 11 14 2 10 -8 16 -9 21 -1 3 5 1 10 -4 10 -12 0 -15 39 -5 65
6 14 9 14 25 -4 10 -11 16 -27 13 -35z m28 -68 c-9 -9 -15 -9 -24 0 -9 9 -7
12 12 12 19 0 21 -3 12 -12z m-32 -29 c0 -16 -3 -19 -12 -11 -7 5 -22 12 -33
16 -12 3 -9 4 8 2 15 -2 27 1 27 5 0 5 2 9 5 9 3 0 5 -10 5 -21z m-55 -90 c-7
-11 -35 -12 -35 -1 0 4 9 8 20 9 11 1 18 -2 15 -8z"/>
<path d="M5164 3897 c-3 -9 -3 -21 1 -27 3 -5 2 -10 -2 -10 -5 0 -14 -9 -21
-20 -10 -16 -10 -30 -1 -62 6 -23 12 -53 14 -67 6 -41 7 -39 15 14 6 39 4 53
-8 62 -18 15 -9 45 12 37 12 -4 13 3 9 38 -7 50 -10 57 -19 35z"/>
<path d="M3842 3877 c1 -15 6 -27 9 -27 4 0 10 -8 12 -17 3 -12 5 -10 6 7 0
14 -6 34 -14 44 -14 19 -15 19 -13 -7z"/>
<path d="M4328 3893 c-10 -2 -18 -10 -18 -16 0 -9 -2 -9 -8 -1 -5 8 -12 5 -23
-10 -16 -21 -15 -21 25 -20 106 4 104 3 109 27 4 21 4 21 6 1 1 -16 8 -22 29
-22 35 0 62 15 62 33 0 24 -28 17 -33 -7 l-4 -23 -2 23 c-1 20 -5 22 -63 21
-35 -1 -71 -3 -80 -6z"/>
<path d="M5101 3834 c0 -11 3 -14 6 -6 3 7 2 16 -1 19 -3 4 -6 -2 -5 -13z"/>
<path d="M4358 3793 c6 -2 18 -2 25 0 6 3 1 5 -13 5 -14 0 -19 -2 -12 -5z"/>
<path d="M3202 3740 c0 -19 2 -27 5 -17 2 9 2 25 0 35 -3 9 -5 1 -5 -18z"/>
<path d="M4700 3706 c0 -13 -3 -38 -6 -55 -4 -19 -2 -31 4 -31 6 0 12 25 14
55 1 30 0 55 -4 55 -5 0 -8 -11 -8 -24z"/>
<path d="M4010 3689 c0 -5 5 -7 10 -4 6 3 10 8 10 11 0 2 -4 4 -10 4 -5 0 -10
-5 -10 -11z"/>
<path d="M3195 3263 c-3 -230 -8 -667 -10 -970 l-4 -553 33 -25 c55 -42 60
-37 54 68 -3 50 -3 120 1 155 6 53 4 62 -9 62 -9 0 -25 6 -36 14 -18 14 -19
33 -15 840 2 454 1 826 -3 826 -3 0 -8 -188 -11 -417z"/>
<path d="M5221 3645 c0 -37 1 -39 14 -21 8 11 11 22 6 25 -4 3 -11 13 -14 21
-3 8 -6 -3 -6 -25z"/>
<path d="M4460 3632 c0 -30 4 -42 15 -42 8 0 40 -11 71 -25 69 -31 75 -31 38
-3 -16 12 -31 25 -34 28 -3 3 -25 23 -48 45 l-42 39 0 -42z"/>
<path d="M3436 3633 c-6 -14 -5 -15 5 -6 7 7 10 15 7 18 -3 3 -9 -2 -12 -12z"/>
<path d="M3976 3625 c-3 -8 -1 -15 4 -15 6 0 10 7 10 15 0 8 -2 15 -4 15 -2 0
-6 -7 -10 -15z"/>
<path d="M5087 3633 c-11 -10 -8 -23 4 -20 24 5 19 -23 -5 -29 -14 -3 -26 -12
-26 -20 0 -17 36 -19 44 -1 4 6 4 1 2 -12 -3 -14 -1 -20 4 -15 5 5 11 30 14
57 5 41 4 47 -12 47 -10 0 -22 -3 -25 -7z"/>
<path d="M5185 3601 c-8 -27 11 -54 21 -28 3 9 1 24 -4 33 -9 16 -10 15 -17
-5z"/>
<path d="M3958 3593 c7 -3 16 -2 19 1 4 3 -2 6 -13 5 -11 0 -14 -3 -6 -6z"/>
<path d="M4927 3581 c3 -12 9 -21 14 -21 14 0 11 16 -5 29 -12 10 -13 8 -9 -8z"/>
<path d="M3805 3550 c11 -5 29 -9 40 -9 l20 0 -20 9 c-11 5 -29 9 -40 9 l-20
0 20 -9z"/>
<path d="M3880 3539 c0 -11 27 -12 34 -1 2 4 -4 9 -15 9 -10 1 -19 -2 -19 -8z"/>
<path d="M3976 3535 c4 -8 10 -15 16 -15 5 0 6 -4 3 -10 -6 -10 32 -15 83 -12
12 0 22 -3 22 -8 0 -5 -24 -10 -52 -12 -53 -3 -53 -3 -25 -17 43 -22 33 -34
-24 -26 -33 5 -54 3 -58 -3 -4 -7 -12 -8 -21 -2 -10 6 -11 10 -3 10 7 0 10 6
7 13 -4 10 4 13 28 9 26 -3 30 -2 21 8 -14 15 -116 4 -107 -12 4 -6 3 -9 -2
-6 -5 2 -24 10 -41 17 -30 12 -37 31 -12 31 6 0 7 -4 4 -10 -3 -5 1 -10 9 -10
9 0 15 6 14 12 -5 21 -30 36 -51 30 -15 -4 -16 -7 -5 -14 8 -6 0 -7 -22 -2
-19 4 -61 7 -92 8 -32 0 -58 4 -58 8 0 5 5 8 12 8 6 0 9 3 5 6 -3 3 -16 -1
-29 -10 -12 -9 -17 -16 -10 -16 6 0 11 -6 10 -12 -2 -7 4 -11 12 -10 61 15
112 2 53 -13 -21 -5 -24 -8 -13 -15 23 -14 2 -24 -25 -12 -31 14 -32 1 -2 -33
19 -23 35 -28 112 -38 176 -24 545 6 545 44 0 12 -42 39 -61 39 -9 0 -19 7
-23 15 -4 11 2 15 22 15 29 -1 70 -26 59 -36 -4 -4 -2 -13 4 -20 8 -10 16 -11
31 -3 20 11 19 12 -11 40 -18 16 -35 29 -38 29 -4 0 -26 9 -50 21 -57 27 -246
39 -237 14z m-9 -122 c-4 -3 -2 -12 4 -20 9 -10 7 -13 -10 -13 -19 0 -20 3
-11 20 6 11 14 20 17 20 3 0 3 -3 0 -7z m223 -7 c0 -2 -7 -6 -15 -10 -8 -3
-15 -1 -15 4 0 6 7 10 15 10 8 0 15 -2 15 -4z m-440 -16 c0 -5 -2 -10 -4 -10
-3 0 -8 5 -11 10 -3 6 -1 10 4 10 6 0 11 -4 11 -10z"/>
<path d="M5067 3526 c-6 -14 12 -26 38 -26 8 0 19 9 25 21 10 19 10 20 -9 10
-13 -7 -22 -8 -26 -1 -9 14 -22 12 -28 -4z"/>
<path d="M5200 3519 c0 -5 5 -7 10 -4 6 3 10 8 10 11 0 2 -4 4 -10 4 -5 0 -10
-5 -10 -11z"/>
<path d="M3847 3506 c-7 -18 1 -26 29 -26 29 0 38 14 19 30 -12 10 -15 9 -15
-4 0 -9 -4 -16 -10 -16 -5 0 -7 7 -4 15 4 8 2 15 -4 15 -5 0 -12 -6 -15 -14z"/>
<path d="M4900 3510 c0 -13 34 -30 46 -22 21 16 13 32 -16 32 -16 0 -30 -4
-30 -10z"/>
<path d="M4763 3480 c-7 -19 -6 -29 4 -38 23 -22 14 -29 -29 -25 -34 3 -39 1
-25 -7 9 -6 17 -17 17 -25 0 -8 8 -18 18 -24 16 -9 16 -11 -2 -24 -19 -14 -19
-15 1 -21 12 -4 27 -5 34 -4 21 4 24 -51 4 -58 -24 -10 -41 11 -25 31 10 13 9
15 -6 15 -22 0 -57 -20 -36 -20 8 0 11 -10 7 -30 -4 -24 -2 -30 12 -30 16 0
16 -2 3 -11 -12 -9 -11 -10 6 -6 11 2 29 -2 40 -10 19 -14 19 -15 -1 -12 -29
3 -94 -12 -102 -24 -9 -15 28 -40 41 -27 13 13 46 13 46 -1 0 -6 9 -8 23 -4
18 6 20 5 10 -6 -14 -14 -30 -18 -85 -21 -21 -2 -38 -5 -39 -8 0 -3 -2 -13 -4
-23 -2 -13 1 -17 11 -13 8 3 14 1 14 -4 0 -6 5 -10 11 -10 5 0 8 4 5 9 -6 9
81 8 107 -2 39 -15 48 -17 41 -5 -5 8 0 9 15 5 16 -4 21 -2 18 7 -3 7 -1 19 4
27 6 9 9 10 9 2 0 -7 10 -17 21 -24 12 -6 19 -7 15 -1 -3 5 1 13 10 16 27 11
37 7 24 -9 -10 -12 -10 -15 3 -15 8 0 17 -5 19 -10 2 -6 28 -12 58 -15 30 -2
66 -7 80 -11 50 -13 135 -2 143 20 3 7 -1 13 -9 13 -8 0 -14 -5 -14 -10 0 -5
-7 -4 -15 3 -13 11 -13 16 5 45 25 41 25 44 -2 37 -15 -3 -19 -2 -14 7 4 6 1
23 -8 36 -18 27 -21 39 -7 31 5 -3 20 3 32 14 19 15 21 19 7 20 -9 0 -23 3
-31 6 -8 3 -21 -1 -28 -8 -8 -8 -22 -17 -31 -21 -15 -5 -18 -1 -18 23 0 32 17
49 26 26 5 -13 8 -14 20 -1 8 8 21 12 29 9 10 -4 15 0 15 10 0 22 -30 33 -44
15 -8 -11 -24 -12 -66 -8 -94 12 -127 10 -133 -6 -5 -11 0 -13 23 -8 18 3 30
1 30 -5 0 -6 8 -12 18 -15 10 -2 1 -8 -25 -16 -41 -11 -63 -35 -25 -26 9 3 33
8 52 13 19 5 41 7 48 5 22 -8 13 -32 -15 -39 -16 -4 -32 -10 -38 -13 -5 -4
-35 -6 -65 -6 -47 0 -55 3 -52 18 2 9 -2 17 -9 17 -8 0 -8 4 1 15 7 8 20 15
30 15 25 0 31 11 15 27 -9 8 -23 12 -34 8 -30 -9 -46 27 -20 43 22 14 39 8 39
-13 0 -8 5 -17 11 -21 6 -4 9 1 8 12 -2 11 0 25 4 32 6 8 1 12 -13 12 -12 0
-18 5 -15 10 4 6 10 8 14 6 3 -3 7 3 7 13 0 15 -6 16 -38 11 -29 -6 -38 -4
-38 6 0 8 3 13 8 12 4 0 23 6 42 15 l35 16 -39 1 c-33 0 -37 2 -26 15 7 9 29
15 51 15 21 0 41 5 44 10 3 6 1 10 -5 10 -6 0 -8 5 -5 10 3 6 2 10 -4 10 -5 0
-12 -6 -14 -12 -4 -9 -6 -9 -6 -1 -1 16 -62 -6 -79 -29 -14 -19 -42 -14 -42 8
0 8 7 17 15 20 8 4 12 10 9 16 -4 5 -13 4 -22 -4 -11 -9 -29 -12 -52 -8 l-35
6 35 11 35 11 -41 -1 c-35 -1 -43 -5 -51 -27z m137 -67 c-8 -3 -18 -10 -21
-15 -3 -5 -11 -3 -17 4 -8 10 -3 13 21 15 18 0 25 -1 17 -4z m-28 -82 c-2 -12
2 -28 8 -36 14 -16 -1 -27 -20 -14 -8 5 -11 9 -6 9 5 0 -1 11 -13 24 -13 14
-21 30 -19 38 3 7 -5 21 -16 30 -14 12 -7 10 24 -6 36 -18 44 -27 42 -45z m24
-103 c-1 -7 -5 -18 -9 -25 -4 -6 -3 -14 3 -18 20 -12 11 -37 -12 -33 -19 2
-22 8 -20 33 3 24 24 55 38 55 1 0 1 -6 0 -12z m294 -58 c0 -5 -9 -10 -20 -10
-11 0 -20 5 -20 10 0 6 9 10 20 10 11 0 20 -4 20 -10z m-205 -30 c22 8 55 2
55 -10 0 -5 8 -6 19 -3 11 3 21 -2 25 -13 4 -10 4 -16 1 -12 -4 3 -22 0 -41
-8 -32 -13 -36 -13 -56 6 -12 11 -28 20 -35 20 -7 0 -13 7 -13 16 0 12 4 14
13 6 6 -5 21 -6 32 -2z m203 -18 c-9 -2 -21 -17 -27 -33 -6 -18 -15 -28 -22
-24 -8 5 -8 10 0 18 21 21 13 37 -14 27 -16 -6 -25 -6 -25 0 0 6 6 10 14 10 7
0 19 6 26 14 9 12 16 13 38 3 19 -9 21 -13 10 -15z m-304 0 c2 -4 -4 -8 -15
-8 -10 0 -19 4 -19 8 0 4 6 8 14 8 8 0 17 -4 20 -8z m326 -35 c14 4 20 0 20
-11 0 -9 -4 -16 -9 -16 -22 0 -41 13 -40 29 0 9 3 11 5 5 3 -7 14 -10 24 -7z"/>
<path d="M3465 3480 c9 -31 29 -47 74 -60 46 -13 51 -5 9 15 -18 10 -46 29
-62 44 l-28 26 7 -25z"/>
<path d="M5045 3463 c-3 -10 -1 -13 9 -10 10 4 13 1 10 -8 -4 -10 0 -12 16 -8
20 5 21 4 11 -16 -7 -12 -16 -19 -21 -16 -14 9 -39 -6 -34 -20 7 -17 74 -27
91 -14 7 6 20 9 28 5 8 -3 15 -1 15 5 0 6 8 5 22 -2 18 -10 20 -9 15 6 -4 9
-7 19 -7 21 0 7 -36 4 -44 -3 -10 -11 -40 -10 -48 1 -8 12 14 35 28 29 6 -2
14 4 18 14 4 9 4 14 0 10 -4 -4 -13 -2 -21 4 -7 6 -13 9 -13 6 0 -3 -15 -1
-34 3 -27 6 -36 4 -41 -7z"/>
<path d="M5187 3459 c7 -7 15 -10 18 -7 3 3 -2 9 -12 12 -14 6 -15 5 -6 -5z"/>
<path d="M4380 3395 c-19 -23 -7 -39 13 -17 10 11 14 23 9 26 -5 3 -15 -1 -22
-9z"/>
<path d="M4215 3370 l-30 -6 29 -7 c16 -5 33 -4 38 1 14 14 -3 19 -37 12z"/>
<path d="M3465 3361 c-3 -5 7 -19 21 -30 19 -15 22 -21 10 -21 -20 0 -21 -14
-1 -30 9 -7 13 -15 10 -18 -3 -3 5 -17 17 -30 l23 -25 -22 12 c-39 20 -28 -15
11 -41 19 -13 37 -32 40 -43 5 -20 5 -20 -9 -1 -8 11 -18 17 -21 13 -4 -4 -2
-12 3 -19 6 -7 9 -21 8 -31 -2 -9 1 -15 6 -11 14 8 29 -5 23 -21 -4 -8 -10
-12 -15 -9 -5 3 -6 -3 -2 -12 5 -13 3 -16 -10 -11 -11 4 -14 2 -10 -9 3 -7 10
-14 17 -14 6 0 4 -5 -4 -10 -10 -6 -11 -10 -2 -10 6 0 12 -7 12 -16 0 -8 -4
-13 -9 -10 -5 3 -15 -2 -22 -11 -8 -9 -9 -14 -3 -10 12 7 26 -27 16 -38 -3 -3
-7 -16 -8 -28 -2 -12 0 -17 2 -10 8 18 31 5 29 -17 -2 -29 -12 -35 -32 -19
-16 13 -17 12 -4 -3 7 -10 10 -18 6 -18 -4 0 -2 -7 5 -15 11 -13 8 -15 -16
-16 -16 0 -37 -4 -47 -8 -17 -6 -17 -8 2 -25 20 -18 21 -18 51 8 17 14 49 30
72 36 63 18 148 -4 156 -40 3 -11 -1 -10 -17 4 -30 27 -106 33 -147 11 -21
-11 -30 -23 -27 -32 3 -8 12 -12 19 -9 8 3 14 2 14 -2 0 -4 -13 -13 -30 -19
-33 -12 -38 -32 -15 -67 8 -12 18 -45 21 -72 7 -51 -3 -58 -12 -8 -9 60 -16
78 -41 111 -14 18 -40 43 -56 55 -32 23 -30 15 10 -38 13 -17 23 -35 23 -40 0
-5 9 -26 19 -45 32 -60 46 -189 20 -189 -5 0 -9 5 -9 11 0 5 -6 7 -12 3 -7 -5
-21 -9 -30 -9 -15 -1 -15 1 -5 13 10 12 9 14 -2 11 -8 -3 -20 -24 -26 -47 -7
-22 -20 -48 -29 -57 -24 -24 -20 -62 9 -81 23 -15 27 -15 60 6 19 12 35 27 35
33 0 7 5 4 11 -6 6 -10 8 -25 5 -32 -3 -8 1 -21 9 -29 16 -16 135 -39 193 -37
21 0 81 0 134 0 67 0 107 4 130 15 18 8 51 16 73 18 37 3 40 6 43 34 2 20 -4
36 -18 49 -11 10 -20 25 -20 33 0 22 88 104 142 132 39 20 44 26 31 34 -21 11
-74 16 -68 6 2 -4 -7 -5 -20 -2 -33 6 -31 11 5 23 17 6 30 15 30 19 0 14 -24
24 -28 12 -2 -6 -10 -8 -18 -5 -8 3 -14 -1 -14 -8 0 -12 -15 -3 -15 9 0 4 -5
14 -10 22 -15 24 -15 41 1 47 8 3 14 13 13 22 0 10 -2 11 -6 4 -2 -7 -9 -13
-14 -13 -6 0 -8 4 -5 9 3 5 -9 16 -27 26 -18 9 -23 15 -11 12 13 -3 21 1 21
10 0 8 -6 12 -13 9 -6 -2 -20 2 -31 9 -10 8 -13 15 -8 15 6 0 17 -6 24 -12 11
-11 12 -8 7 15 -4 17 -3 26 2 23 6 -3 12 3 15 14 4 14 11 18 24 14 14 -5 15
-4 4 4 -10 7 -22 5 -40 -6 -24 -15 -25 -15 -13 0 10 12 10 18 1 23 -8 6 -6 11
7 19 11 6 23 11 29 11 19 0 10 40 -10 47 -19 6 -19 6 3 13 12 4 22 11 22 16 0
5 7 6 15 3 8 -4 15 -1 15 6 0 6 -4 9 -8 6 -4 -2 -14 -1 -22 4 -8 5 -22 5 -32
-1 -16 -9 -17 -7 -6 16 8 19 19 25 41 25 38 0 30 9 -13 15 -47 6 -46 11 5 24
48 12 63 25 20 17 -14 -3 -23 -1 -20 4 3 5 1 11 -5 15 -16 10 0 27 18 20 13
-5 12 -1 -3 17 -11 13 -13 17 -5 11 17 -16 44 -17 35 -2 -4 6 -17 14 -29 19
-20 8 -20 9 -1 9 11 1 30 8 41 16 12 8 25 11 29 7 5 -4 5 -1 1 6 -4 6 -14 12
-22 12 -8 0 -14 5 -14 10 0 6 5 10 10 10 6 0 10 5 10 10 0 6 -9 10 -20 10 -33
0 -22 16 21 30 22 8 43 18 46 23 3 5 -4 6 -17 2 -15 -5 -20 -4 -16 4 4 6 0 11
-11 12 -10 0 6 9 35 20 43 17 51 23 41 35 -8 10 -28 12 -78 9 -115 -9 -422 -9
-511 0 -46 4 -102 14 -124 21 -45 16 -82 18 -91 5z m597 -514 c-18 -17 -22
-18 -16 -4 3 9 11 17 16 17 6 0 7 8 3 18 -5 14 -4 15 7 4 10 -10 8 -17 -10
-35z m-231 -139 c16 -30 3 -20 -27 20 -23 30 -24 33 -5 17 13 -11 27 -28 32
-37z m-114 16 c-3 -3 -12 -4 -19 -1 -8 3 -5 6 6 6 11 1 17 -2 13 -5z m-62 -34
c3 -5 1 -10 -4 -10 -6 0 -11 5 -11 10 0 6 2 10 4 10 3 0 8 -4 11 -10z m102
-22 c36 -37 55 -80 47 -103 -4 -9 -1 -15 7 -15 10 0 10 -3 1 -12 -16 -16 -53
17 -45 40 4 10 2 13 -5 8 -19 -12 -52 17 -63 57 -5 20 -15 37 -22 37 -18 0 15
20 34 20 8 0 29 -15 46 -32z m33 17 c20 -24 6 -28 -15 -5 -10 11 -13 20 -8 20
6 0 16 -7 23 -15z m60 -20 c-13 -14 -27 -25 -31 -25 -11 0 34 50 45 50 5 0 -1
-11 -14 -25z m22 -95 c2 -20 10 -26 38 -31 19 -4 32 -7 28 -8 -4 0 4 -12 18
-26 28 -28 54 -83 54 -114 0 -11 6 -22 13 -25 6 -3 -10 -4 -36 -2 -27 2 -45 0
-40 -4 4 -5 28 -10 53 -13 l45 -4 -46 -1 c-31 -1 -51 3 -59 13 -7 8 -9 15 -4
15 5 0 4 4 -2 8 -12 7 -104 155 -104 166 0 3 7 6 15 6 19 0 19 4 0 41 -15 29
-15 29 4 17 11 -7 21 -24 23 -38z m-99 -81 c-5 -5 -9 -1 -9 9 -1 9 -4 26 -8
37 -4 11 0 7 9 -9 10 -16 13 -32 8 -37z m-58 -130 c11 -4 -12 -5 -51 -2 -48 4
-73 2 -78 -6 -4 -6 -2 -11 3 -11 6 0 11 -4 11 -9 0 -5 -9 -7 -21 -4 -20 6 -20
6 3 30 19 21 28 23 68 17 25 -4 54 -10 65 -15z"/>
<path d="M5175 3352 c-22 -1 -51 -8 -64 -15 -19 -9 -25 -9 -28 1 -3 6 -16 12
-30 12 -21 0 -23 -2 -10 -15 20 -20 76 -28 93 -14 11 9 14 8 14 -7 0 -16 2
-17 10 -4 8 12 10 12 10 1 0 -11 4 -11 19 3 10 9 25 14 35 10 10 -4 16 -1 16
9 0 19 -14 23 -65 19z"/>
<path d="M4270 3339 c0 -5 5 -7 10 -4 6 3 10 8 10 11 0 2 -4 4 -10 4 -5 0 -10
-5 -10 -11z"/>
<path d="M4514 3251 c-1 -86 -27 -157 -98 -263 -53 -79 -56 -88 -50 -127 6
-37 24 -69 24 -42 0 5 27 50 60 100 68 101 94 156 116 237 25 98 13 165 -28
162 -21 -2 -23 -7 -24 -67z"/>
<path d="M4205 3200 c3 -5 8 -10 11 -10 2 0 4 5 4 10 0 6 -5 10 -11 10 -5 0
-7 -4 -4 -10z"/>
<path d="M4165 3110 c-3 -5 -1 -10 4 -10 6 0 11 5 11 10 0 6 -2 10 -4 10 -3 0
-8 -4 -11 -10z"/>
<path d="M3536 2715 c-3 -8 -1 -15 4 -15 6 0 10 7 10 15 0 8 -2 15 -4 15 -2 0
-6 -7 -10 -15z"/>
<path d="M4137 2589 c7 -7 15 -10 18 -7 3 3 -2 9 -12 12 -14 6 -15 5 -6 -5z"/>
<path d="M4480 2383 c-137 -21 -230 -58 -214 -84 3 -6 -2 -9 -12 -7 -15 2 -20
-4 -22 -27 -2 -24 10 -45 63 -107 43 -51 73 -78 87 -78 11 0 50 11 87 24 36
13 101 32 144 42 l77 18 0 43 c0 38 -6 50 -41 86 -23 23 -36 35 -30 25 14 -19
17 -18 -117 -44 l-92 -18 -21 21 c-28 27 -19 50 26 68 36 16 144 20 161 8 5
-5 -1 2 -14 15 -23 22 -32 23 -82 15z m-107 -101 c9 -8 17 -19 17 -24 0 -17
-17 -7 -39 23 -23 31 -14 31 22 1z"/>
<path d="M5190 2214 c0 -18 7 -37 18 -45 15 -13 16 -12 3 3 -7 10 -11 24 -8
31 3 8 1 20 -4 28 -6 10 -9 5 -9 -17z"/>
<path d="M4947 2213 c-4 -3 -7 -11 -7 -17 0 -6 5 -5 12 2 6 6 9 14 7 17 -3 3
-9 2 -12 -2z"/>
<path d="M4982 2190 c0 -19 2 -27 5 -17 2 9 2 25 0 35 -3 9 -5 1 -5 -18z"/>
<path d="M5068 2195 c2 -14 8 -25 13 -25 5 0 12 0 16 0 5 0 9 12 10 27 2 19 0
24 -6 14 -5 -8 -7 -21 -3 -29 4 -11 1 -13 -7 -8 -7 5 -11 17 -8 27 3 11 0 19
-8 19 -8 0 -11 -9 -7 -25z"/>
<path d="M4948 2179 c-10 -5 -18 -15 -18 -22 0 -8 3 -7 9 2 5 7 14 10 20 7 6
-4 11 0 11 8 0 19 0 18 -22 5z"/>
<path d="M5000 2181 c0 -6 4 -13 10 -16 6 -3 7 1 4 9 -7 18 -14 21 -14 7z"/>
<path d="M2651 1916 c-8 -10 -8 -16 3 -25 11 -9 15 -7 19 9 6 25 -7 35 -22 16z"/>
<path d="M2771 1904 c0 -11 3 -14 6 -6 3 7 2 16 -1 19 -3 4 -6 -2 -5 -13z"/>
<path d="M2695 1900 c-3 -5 -1 -10 4 -10 6 0 11 5 11 10 0 6 -2 10 -4 10 -3 0
-8 -4 -11 -10z"/>
<path d="M2880 1898 c0 -9 7 -19 16 -22 15 -6 15 -4 3 11 -7 10 -15 20 -16 22
-2 2 -3 -3 -3 -11z"/>
<path d="M2918 1898 c6 -6 8 -17 5 -25 -5 -13 -2 -13 16 -4 25 14 21 26 -10
34 -16 4 -19 3 -11 -5z"/>
<path d="M2613 1886 c-9 -11 -8 -15 6 -19 14 -3 17 0 14 14 -6 22 -5 22 -20 5z"/>
<path d="M2949 1853 c-13 -16 -12 -17 4 -4 16 13 21 21 13 21 -2 0 -10 -8 -17
-17z"/>
<path d="M2970 1838 c0 -4 4 -8 9 -8 6 0 12 4 15 8 3 5 -1 9 -9 9 -8 0 -15 -4
-15 -9z"/>
<path d="M2557 1827 c-3 -8 1 -14 8 -14 7 0 11 6 8 14 -3 7 -6 13 -8 13 -2 0
-5 -6 -8 -13z"/>
<path d="M3022 1828 c-7 -7 -12 -17 -12 -24 0 -7 -5 -14 -12 -16 -7 -3 -6 -7
5 -11 11 -4 17 -1 17 8 0 8 5 15 10 15 6 0 10 -11 10 -25 0 -24 9 -30 38 -26
6 1 12 -2 12 -7 0 -11 148 -87 156 -79 3 3 -8 13 -26 22 -17 9 -52 37 -77 63
-28 30 -51 46 -64 44 -11 -2 -19 3 -19 11 0 23 -24 39 -38 25z"/>
<path d="M5745 1794 c8 -6 15 -15 15 -19 0 -5 16 -41 35 -82 52 -109 50 -108
-45 27 -6 8 -16 26 -23 39 -20 40 -33 35 -59 -26 -40 -91 -41 -107 -13 -163
l25 -50 -56 0 c-55 0 -63 -4 -247 -117 l-190 -118 146 -12 c194 -16 286 -35
132 -26 -299 15 -317 14 -371 -34 -21 -19 -31 -30 -21 -23 15 11 17 10 12 -2
-5 -12 5 -17 44 -22 28 -4 53 -12 57 -18 5 -8 -8 -9 -47 -5 -30 4 -64 7 -77 7
-16 0 -21 4 -16 13 5 7 -2 5 -16 -4 -22 -14 -25 -25 -28 -80 -2 -51 1 -68 17
-90 15 -20 21 -44 21 -81 0 -61 6 -73 41 -86 35 -14 392 -55 686 -79 83 -7 81
-8 198 91 42 37 81 63 86 60 5 -3 18 -22 29 -43 10 -21 26 -41 34 -44 8 -3 86
-9 173 -12 132 -6 168 -4 218 10 33 9 72 19 88 21 15 2 49 15 75 29 26 14 55
25 64 25 10 0 22 9 28 20 7 14 21 20 44 20 19 0 43 9 56 20 13 11 32 20 42 20
11 0 33 8 49 17 36 22 39 69 7 122 -71 117 -465 684 -482 694 -14 7 -101 12
-251 13 -172 2 -207 0 -140 -6 152 -13 217 -45 337 -164 74 -74 109 -145 115
-237 5 -73 5 -77 -18 -89 -12 -7 -50 -12 -83 -12 -49 1 -66 6 -101 31 -23 17
-44 28 -47 26 -9 -9 -45 40 -177 238 -73 108 -129 202 -126 207 4 6 -8 10 -28
10 -26 0 -34 -4 -33 -17 2 -23 -48 -35 -71 -17 -15 12 -16 15 -3 23 10 7 -7 9
-53 8 -51 -2 -63 -5 -52 -13z m611 -530 c17 -12 65 -19 162 -26 189 -13 197
-30 12 -26 -133 3 -148 5 -177 26 -48 34 -46 57 3 26z m-75 -114 c23 -18 23
-19 4 -20 -11 0 -26 9 -33 20 -16 26 -1 26 29 0z m-486 -10 c3 -5 1 -10 -4
-10 -6 0 -11 5 -11 10 0 6 2 10 4 10 3 0 8 -4 11 -10z"/>
<path d="M3180 1614 l0 -44 38 16 c20 9 43 18 50 21 6 3 12 12 12 19 0 16 -8
20 -62 28 l-38 5 0 -45z"/>
<path d="M2374 1608 c-40 -10 -49 -33 -28 -66 18 -28 47 -125 35 -118 -4 3
-13 23 -21 45 -7 23 -17 41 -22 41 -13 0 -126 -104 -127 -117 -2 -22 49 -26
122 -10 40 8 98 21 129 27 55 11 57 12 46 35 -10 23 -4 67 17 117 11 28 -36
33 -89 9 -46 -20 -46 -20 -35 0 18 34 8 47 -27 37z"/>
</g>
</svg>
